<svg width="118.000000" height="155.000000" viewBox="0 0 118 155" fill="none" xmlns="http://www.w3.org/2000/svg" xmlns:xlink="http://www.w3.org/1999/xlink">
	<desc>
			Created with Pixso.
	</desc>
	<defs/>
	<path id="Vector" d="M113.68 77.5L97.56 109.79C96.2 112.49 93.83 115.08 90.98 115.89C90.99 116.01 91.05 116.12 91.05 116.25L91.05 122.7C91.05 126.27 88.14 129.16 84.55 129.16L84.55 135.62C84.55 139.19 81.64 142.08 78.04 142.08L78.04 148.54C78.04 152.11 75.13 154.1 71.53 154.1L45.5 154.1C41.9 154.1 38.99 152.11 38.99 148.54L38.99 142.08C35.39 142.08 32.48 139.19 32.48 135.62L32.48 129.16C28.88 129.16 25.97 126.27 25.97 122.7L25.97 116.25C25.97 116.13 26.03 116.04 26.04 115.93C23.25 115.2 21.2 112.63 19.46 109.79L3.34 77.5C1.18 71.43 -0.06 64.93 -0.06 58.12C-0.06 26.02 26.16 0 58.51 0C90.86 0 117.09 26.02 117.09 58.12C117.09 64.93 115.85 71.43 113.68 77.5ZM45.5 148.54L71.53 148.54L71.53 142.08L45.5 142.08L45.5 148.54ZM38.99 135.62L45.5 135.62L71.53 135.62L78.04 135.62L78.04 129.16L38.99 129.16L38.99 135.62ZM32.48 122.7L38.99 122.7L78.04 122.7L84.55 122.7L84.55 116.25L32.48 116.25L32.48 122.7ZM58.51 12.91C33.35 12.91 12.95 33.14 12.95 58.12C12.95 65.06 14.58 71.62 17.4 77.5L30.59 103.33L86.58 103.33L99.63 77.5C102.44 71.62 104.07 65.06 104.07 58.12C104.07 33.14 83.68 12.91 58.51 12.91ZM58.51 25.83L58.51 19.37C80.08 19.37 97.56 36.72 97.56 58.12L91.05 58.12C91.05 40.29 76.49 25.83 58.51 25.83Z" fill="#130E27" fill-opacity="1.000000" fill-rule="evenodd"/>
</svg>
