<svg width="151.000000" height="150.000000" viewBox="0 0 151 150" fill="none" xmlns="http://www.w3.org/2000/svg" xmlns:xlink="http://www.w3.org/1999/xlink">
	<desc>
			Created with Pixso.
	</desc>
	<defs/>
	<path id="Vector" d="M75 150C33.18 150 -0.74 116.42 -0.74 75C-0.74 33.57 33.18 0 75 0C116.83 0 150.75 33.57 150.75 75C150.75 116.42 116.83 150 75 150ZM81.32 12.81L81.32 18.75C81.32 22.2 78.49 25 75 25C71.52 25 68.69 22.2 68.69 18.75L68.69 12.81C38.88 15.74 15.16 39.22 12.2 68.75L18.2 68.75C21.69 68.75 24.51 71.54 24.51 75C24.51 78.45 21.69 81.25 18.2 81.25L12.2 81.25C15.16 110.77 38.88 134.25 68.69 137.18L68.69 131.25C68.69 127.79 71.52 125 75 125C78.49 125 81.32 127.79 81.32 131.25L81.32 137.18C111.13 134.25 134.84 110.77 137.8 81.25L131.81 81.25C128.32 81.25 125.5 78.45 125.5 75C125.5 71.54 128.32 68.75 131.81 68.75L137.8 68.75C134.84 39.22 111.13 15.74 81.32 12.81ZM61.62 88.25L34.84 79.41L106.25 44.05L70.54 114.77L61.62 88.25ZM92.13 58.03L51.29 78.26L63.61 82.32L66.61 83.31L67.6 86.28L71.71 98.48L92.13 58.03Z" fill="#130E27" fill-opacity="1.000000" fill-rule="evenodd"/>
</svg>
