<svg width="164.000000" height="139.000000" viewBox="0 0 164 139" fill="none" xmlns="http://www.w3.org/2000/svg" xmlns:xlink="http://www.w3.org/1999/xlink">
	<desc>
			Created with Pixso.
	</desc>
	<defs/>
	<path id="Vector" d="M150.34 73.18L81.76 138.93L13.19 73.18C-4.49 56.23 -4.49 28.76 13.19 11.82C30.86 -5.13 59.51 -5.13 77.19 11.82C78.89 13.45 80.39 15.21 81.76 17.02C83.14 15.21 84.63 13.45 86.34 11.82C104.01 -5.13 132.66 -5.13 150.34 11.82C168.01 28.76 168.01 56.23 150.34 73.18ZM141.19 20.58C128.57 8.48 108.1 8.48 95.47 20.58C92.46 23.48 81.76 33.73 81.76 33.73C81.76 33.73 71.07 23.48 68.05 20.58C55.43 8.48 34.96 8.48 22.33 20.58C9.71 32.7 9.71 52.31 22.33 64.42C25.59 67.54 81.76 121.4 81.76 121.4C81.76 121.4 137.94 67.54 141.19 64.42C153.81 52.31 153.81 32.7 141.19 20.58ZM125.53 54.21C128 51.85 129.53 48.57 129.53 44.95C129.53 37.72 123.42 31.85 115.87 31.85L115.87 25.3C127.18 25.3 136.36 34.11 136.36 44.95C136.36 50.38 134.07 55.29 130.36 58.84L125.53 54.21Z" fill="#130E27" fill-opacity="1.000000" fill-rule="evenodd"/>
</svg>
