<svg width="293.000000" height="90.000000" viewBox="0 0 293 90" fill="none" xmlns="http://www.w3.org/2000/svg" xmlns:xlink="http://www.w3.org/1999/xlink">
	<desc>
			Created with Pixso.
	</desc>
	<defs/>
	<path id="Vector" d="M32.4 19.13L32.4 19.38C32.26 19.38 32.05 19.5 31.76 19.72C31.59 19.72 31.4 19.84 31.17 20.09L31.04 20.09L31.04 19.84C30.79 20.09 30.59 20.22 30.45 20.22L30.58 20.47C28.8 21.72 27.8 22.34 27.57 22.34L27.7 22.59C27.67 22.76 27.47 22.91 27.1 23.05L27.1 22.93L27.19 22.72L26.98 22.72L26.72 22.8C26.84 23.14 26.96 23.3 27.1 23.3L27.19 23.3C27.92 22.83 28.37 22.59 28.54 22.59L28.54 22.72C28.01 23.5 27.4 23.89 26.72 23.89C26.75 24.05 26.84 24.14 26.98 24.14C27.12 24.14 27.51 23.97 28.16 23.64L28.29 23.89L26.38 25.3L26.47 25.55C26.47 25.64 26.16 25.96 25.54 26.51L25.62 26.51L26.13 26.39C26.27 26.47 26.43 26.51 26.6 26.51C26.68 26.36 26.73 26.19 26.72 26.01L27.1 26.01L27.1 26.14L26.85 26.51L26.85 26.6L27.31 26.6L27.31 26.85C26.75 26.96 24.22 28.7 19.73 32.06C16.29 35.03 13.41 37.88 11.09 40.61C7.87 44.5 6.26 48.25 6.26 51.86L6.39 52.32C6.39 52.41 6.35 52.45 6.26 52.45C6.63 54.81 7.03 55.99 7.45 55.99C8.64 55.99 10.85 54.34 14.1 51.03C15.77 48.53 16.6 46.9 16.6 46.15L16.6 41.77L17.32 40.94C17.24 40.51 17.2 40.08 17.19 39.65L17.45 39.52C17.53 39.52 17.57 39.56 17.57 39.65L17.83 39.52L18.29 39.65L18.89 39.31L19.14 39.31C20.1 39.9 20.58 40.24 20.58 40.36C21.57 41 22.13 41.43 22.27 41.65L22.87 41.57C23.18 41.57 23.42 42.15 23.59 43.32L23.46 43.82C23.46 44.29 23.42 45.58 23.33 47.69C23.67 50.14 24.2 52.39 24.9 54.45C24.76 54.53 24.65 54.57 24.56 54.57C24.68 54.91 24.87 55.07 25.15 55.07L25.15 55.41C24.99 55.41 24.9 55.45 24.9 55.53C25.1 56.09 25.34 56.64 25.62 57.2L25.41 57.33C25.1 56.69 24.9 56.37 24.82 56.37L24.69 56.37C24.69 56.53 25.08 57.37 25.88 58.87L25.88 58.95C25.88 59.51 25.24 59.79 23.97 59.79C23.97 59.95 23.69 60.04 23.12 60.04C22.08 59.81 21.27 59.3 20.71 58.49C20.26 57.99 19.65 56.85 18.89 55.07C15.39 58.38 12.86 60.04 11.3 60.04L9.86 60.04C9.05 60.04 8.09 59.68 6.98 58.95C3.91 57.84 1.97 56.46 1.18 54.82C0.64 53.38 0.38 52.07 0.38 50.9C0.43 50.9 0.46 50.86 0.46 50.78C0.35 50.78 0.19 50.5 0 49.95C0.16 46.83 0.56 45.1 1.18 44.73L1.56 44.73C1.79 44.29 1.9 43.98 1.9 43.82L1.69 43.9C1.58 43.9 1.45 43.79 1.31 43.57C1.56 43.57 1.93 42.93 2.41 41.65C2.52 41.65 2.76 41.34 3.13 40.73L3.38 40.81C3.52 40.81 4.53 39.52 6.39 36.94L6.39 36.81C5.8 37.51 5.39 37.85 5.16 37.85L5.04 37.65C8.17 33.73 11.67 30.36 15.54 27.56C16.73 26.62 17.97 25.76 19.27 24.97C19.35 25.11 19.4 25.22 19.4 25.3L19.14 25.76L20.24 25.05L20.45 25.05L20.45 25.3L20.58 25.3L20.58 25.05C20.5 25.05 20.45 25.03 20.45 24.97L22.74 23.43C23.48 22.87 24.41 22.4 25.54 22.01L25.54 21.89L25.41 21.89C24.87 22.11 24.55 22.22 24.44 22.22L24.44 21.76C24.92 21.76 25.56 21.4 26.38 20.68L26.6 20.68L26.6 21.05L26.47 21.26L26.6 21.26C26.96 21.04 27.24 20.93 27.44 20.93L27.7 21.05C29.02 20.41 29.83 20.09 30.11 20.09C31.13 19.45 31.89 19.13 32.4 19.13ZM28.04 20.22L28.04 20.34C28.04 20.45 27.72 20.65 27.1 20.93L26.72 20.93L26.72 20.55C26.92 20.55 27.36 20.44 28.04 20.22ZM27.1 21.39L27.19 21.39C27.36 21.39 27.44 21.32 27.44 21.18L27.31 21.18C27.17 21.18 27.1 21.25 27.1 21.39ZM26.13 21.26L26 21.51L26 21.64L26.13 21.64C26.13 21.47 26.21 21.38 26.38 21.38L26.38 21.26L26.13 21.26ZM23.25 22.47L23.59 22.47L23.59 22.72L23.25 22.72L23.25 22.47ZM22.61 22.8C22.78 22.83 22.87 22.91 22.87 23.05C22.11 23.55 21.5 24.03 21.05 24.47C20.93 24.47 20.5 24.71 19.73 25.18L19.61 25.18L19.61 24.97C20.23 24.5 20.64 24.26 20.83 24.26C20.83 23.98 21.43 23.5 22.61 22.8ZM26 23.76L25.88 23.76L25.54 23.51L25.54 24.01C25.37 24.09 25.24 24.14 25.15 24.14L25.15 24.26L25.41 24.26C26.26 23.76 26.74 23.51 26.85 23.51L26.85 23.3C26.74 23.3 26.45 23.46 26 23.76ZM22.02 26.26L22.15 26.26C22.32 26.26 22.4 26.18 22.4 26.01L22.4 25.89C22.29 25.89 22.16 26.01 22.02 26.26ZM20.83 26.85L20.83 26.97C20.92 26.97 21.03 27.01 21.17 27.1L21.17 26.85L20.83 26.85L20.83 26.85ZM19.86 27.22L19.86 27.31L20.12 27.31L20.12 27.56L19.86 27.56L19.86 27.68L19.99 27.68C20.13 27.6 20.29 27.55 20.45 27.56C20.45 27.44 20.3 27.33 19.99 27.22L19.86 27.22L19.86 27.22ZM16.01 27.93C16.01 28.15 15.85 28.26 15.54 28.26L15.54 28.39L15.75 28.39L16.13 27.93L16.01 27.93ZM19.27 28.01L19.14 28.26L19.14 28.39L19.27 28.39C19.27 28.22 19.35 28.14 19.52 28.14L19.52 28.01L19.27 28.01ZM19.86 30.27C19.89 30.43 19.97 30.52 20.12 30.52C20.23 30.21 20.34 30.06 20.45 30.06L20.58 30.06C20.78 30.2 20.93 30.27 21.05 30.27C21.41 30.13 21.62 29.97 21.68 29.81C21.51 29.81 21.43 29.72 21.43 29.56L21.43 29.47C21.62 29.47 21.91 29.31 22.27 28.97L22.4 28.97L22.4 29.1L22.27 29.35L22.74 29.35C22.74 29.27 22.78 29.14 22.87 28.97L22.53 28.97L22.53 28.76C22.59 28.51 22.9 28.35 23.46 28.26C23.46 28.1 23.39 28.01 23.25 28.01C22.68 28.04 21.55 28.79 19.86 30.27ZM17.83 29.1L17.83 29.22C17.86 29.39 17.93 29.47 18.04 29.47L18.17 29.22L18.17 29.1L17.83 29.1ZM21.81 29.68L21.81 29.81L21.89 29.81C22.06 29.81 22.15 29.72 22.15 29.56L22.15 29.47L22.02 29.47C21.88 29.47 21.81 29.54 21.81 29.68ZM15.75 30.39C15.75 30.47 15.72 30.6 15.67 30.77C15.78 30.77 15.93 30.85 16.13 31.02L16.39 30.64L16.39 30.52L16.13 30.64L15.75 30.39ZM15.16 31.47L15.29 31.47C15.6 31.36 15.75 31.24 15.75 31.1L15.54 31.1C15.43 31.1 15.3 31.22 15.16 31.47ZM13.97 32.18L13.97 32.43L14.31 32.43L14.31 32.18L13.97 32.18ZM13.46 32.64L13.46 33.02C13.63 33.02 13.72 32.93 13.72 32.77L13.72 32.64L13.46 32.64L13.46 32.64ZM13 33.02C13 33.1 12.96 33.21 12.87 33.35L13 33.35L13.25 33.02L13 33.02ZM3.85 39.65L3.98 39.9L3.72 40.02L3.6 40.02L3.6 39.9C3.62 39.73 3.71 39.65 3.85 39.65L3.85 39.65ZM2.16 42.73L2.16 42.86C2.27 42.86 2.4 42.73 2.54 42.48L2.41 42.48C2.24 42.51 2.16 42.59 2.16 42.73ZM61.37 22.01L61.5 22.26L61.12 23.18L61.12 23.3L61.24 23.3L61.24 23.05L61.5 23.05L61.5 23.3L60.06 25.97L60.06 26.1L60.18 26.1C61 24.57 61.61 23.64 62.01 23.3L62.01 23.55C60.82 25.57 59.69 27.61 58.62 29.68L58.62 29.81L58.74 29.81C58.8 29.47 58.94 29.31 59.17 29.31L59.29 29.31L59.29 29.56L59 29.93L59 30.18L59.55 29.56L59.8 29.68C59.8 29.57 59.93 29.45 60.18 29.31L60.18 29.43C60.18 29.68 60.06 30.02 59.8 30.43C59.89 30.6 59.93 30.78 59.93 30.98L59.8 30.98L59.55 30.85L59.42 31.1C59.68 31.1 59.8 31.18 59.8 31.35C59.32 31.54 59.05 31.79 59 32.1C59.2 32.13 59.29 32.21 59.29 32.35L59.29 32.48C59.29 32.67 58.77 33.23 57.73 34.14L57.73 34.27L57.98 34.14C58.15 34.17 58.24 34.25 58.24 34.39C58.1 34.39 57.8 34.95 57.35 36.06C56.98 36.48 56.67 37.3 56.42 38.52L55.91 39.4L56.03 39.4L56.29 39.27C56.29 39.36 56.33 39.4 56.42 39.4L54.85 42.61C54.48 43.11 54.23 43.36 54.09 43.36L54.21 43.61C54.21 44.05 53.86 44.57 53.15 45.15L53.28 45.4L51.88 48.11L51.5 48.11L51.63 48.74C50.56 49.43 49.99 50.15 49.93 50.9C49.93 51.18 49.02 52.5 47.18 54.87C47.27 54.87 47.53 54.7 47.99 54.37L47.99 54.49C46.88 55.75 45.66 56.91 44.34 57.95C44.34 58.37 43.74 58.8 42.52 59.24C41.62 59.83 40.76 60.12 39.94 60.12C38.19 60.12 35.72 59.13 32.52 57.16C30.27 54.77 29.14 51.92 29.14 48.61C29.14 45.05 30 41.01 31.72 36.48C32.71 34.76 33.4 33.89 33.8 33.89C34.16 33.89 34.35 33.77 34.35 33.52L36.55 34.14C37.23 34.76 37.57 35.39 37.57 36.06C36.97 36.98 36.68 37.62 36.68 37.98L36.8 37.98C36.63 40.73 36.46 42.57 36.29 43.48C36.47 43.48 36.65 43.52 36.8 43.61C36.44 45.39 36.18 46.37 36.04 46.57L36.17 46.82L36.17 47.57L35.87 47.57L35.87 46.44L35.74 46.44C35.74 46.75 35.66 47.35 35.49 48.24L35.74 48.24L35.74 47.99L36.04 47.99L36.04 48.11C35.67 48.36 35.49 48.57 35.49 48.74L35.49 49.11L35.62 49.11L35.62 48.61L35.87 48.61L35.87 50.53C35.87 50.72 35.93 50.89 36.04 51.03L35.87 51.28C35.98 51.45 36.04 51.59 36.04 51.7C35.93 51.7 35.87 51.74 35.87 51.82C36.01 51.82 36.28 52.71 36.68 54.49C37.02 54.96 37.18 55.35 37.18 55.66L37.69 55.66C39.39 54.68 41.43 52.63 43.83 49.49L47.18 44.03L54.59 30.31C57.39 25.3 59.04 22.75 59.55 22.64C59.55 22.72 59.59 22.76 59.68 22.76L59.55 23.05L59.55 23.18L60.31 22.51C60.47 22.6 60.64 22.64 60.82 22.64C60.82 22.38 61 22.18 61.37 22.01ZM58.87 23.8L58.87 24.18L59 24.18C59.14 24.18 59.28 24.05 59.42 23.8L59.42 23.43L59.29 23.43C59.15 23.43 59.01 23.55 58.87 23.8ZM58.49 24.55L58.49 24.97C58.63 24.97 58.76 24.83 58.87 24.55L58.87 24.43C58.7 24.51 58.58 24.55 58.49 24.55ZM57.22 33.02C57.22 33.2 57.16 33.38 57.05 33.52L57.22 33.52L57.35 33.27L57.35 33.02L57.22 33.02ZM37.06 41.32L37.31 41.32L37.31 41.44L36.93 43.23L36.68 43.23C36.68 42.95 36.8 42.32 37.06 41.31L37.06 41.32ZM36.04 44.9L35.87 45.15L35.87 45.78L36.04 45.78C36.04 45.55 36.13 45.3 36.3 45.03L36.04 44.9ZM53.15 46.32L53.28 46.32C53.03 46.82 52.9 47.11 52.9 47.19L52.65 47.19L52.65 46.94C52.87 46.53 53.04 46.32 53.15 46.32ZM52.26 47.57L52.52 47.57L52.52 47.86C52.52 48.03 52.43 48.11 52.26 48.11L52.14 48.11C52.22 47.94 52.26 47.76 52.26 47.57ZM46.55 55.53L46.67 55.53C46.84 55.53 46.93 55.44 46.93 55.24L46.93 55.12C46.81 55.12 46.69 55.26 46.54 55.53L46.55 55.53ZM46.16 55.78C46.16 55.95 46.08 56.03 45.91 56.03L45.91 56.16L46.16 56.16L46.42 55.78L46.16 55.78ZM75.56 -0.63C75.64 -0.49 75.69 -0.34 75.69 -0.17L75.9 -0.3L75.9 -0.17C75.76 0.13 75.69 0.41 75.69 0.66L75.77 0.66L76.36 0.29L76.49 0.54C75.39 3.32 74.84 4.83 74.84 5.08L74.71 5.08L74.84 5.29L73.65 8L73.99 8C74.08 7.44 74.25 7.17 74.5 7.17C74.5 7.28 74.61 7.4 74.84 7.54C74.92 7.38 74.97 7.25 74.97 7.17L75.09 7.17C75.23 7.19 75.31 7.28 75.31 7.42C74.97 8.03 74.73 8.33 74.59 8.33L74.59 8.46C74.76 8.65 74.84 8.81 74.84 8.92L74.97 8.92C75.08 8.92 75.23 8.68 75.43 8.21L75.43 7.63C75.55 7.63 75.7 7.43 75.9 7.04L75.77 6.83L76.75 4.5C76.75 4.36 76.59 4.21 76.28 4.04C76.14 4.04 75.97 4.19 75.77 4.5C75.88 4.5 76.08 4.69 76.36 5.08C75.83 5.81 75.47 6.31 75.31 6.58L75.09 6.58L75.09 6.37L74.84 6.37C74.84 6.82 74.76 7.04 74.58 7.04C74.44 7.04 74.37 6.97 74.37 6.83C74.66 6.39 74.9 5.8 75.09 5.08C75.8 3.3 76.15 2.37 76.15 2.29L76.49 2.04L76.62 2.04C76.53 2.37 76.49 2.65 76.49 2.87C76.75 2.87 76.87 3.03 76.87 3.33L76.62 3.46L76.75 4.12L76.96 4.12C76.99 3.73 77.27 3.27 77.8 2.75C77.8 2.83 77.85 2.87 77.93 2.87C77.83 3.16 77.62 3.4 77.34 3.54C77.34 3.62 77.38 3.66 77.47 3.66C77.21 4.89 76.93 5.94 76.62 6.83L76.87 6.96C77.15 5.85 77.47 5.18 77.8 4.96C77.8 5.04 77.85 5.08 77.93 5.08C77.85 5.94 77.72 6.49 77.55 6.71L77.93 6.71C77.93 6.79 77.89 6.83 77.8 6.83L77.93 7.42C76.64 11.09 75.41 14.79 74.25 18.51C74.87 18.51 75.18 18.54 75.18 18.59L75.43 18.51C76.93 18.51 78.43 18.43 79.92 18.26C80.09 18.34 80.22 18.38 80.3 18.38C80.42 18.24 81.36 18.12 83.14 18.01C83.28 18.09 83.4 18.13 83.48 18.13C83.64 18.05 83.81 18 83.99 18.01C83.99 18.17 84.06 18.26 84.2 18.26C84.23 18.09 84.31 18.01 84.46 18.01L85.51 18.01L86.11 17.92C86.11 17.98 86.15 18.01 86.23 18.01C86.23 17.9 86.94 17.74 88.35 17.55L88.35 17.67L91.32 17.21C91.46 17.3 91.62 17.34 91.78 17.34C91.81 17.17 91.9 17.09 92.04 17.09L92.16 17.09C92.33 17.09 92.49 17.13 92.63 17.21C92.77 17.13 92.93 17.09 93.1 17.09L93.35 17.21C93.35 17.1 93.46 16.98 93.69 16.84C93.83 16.92 93.94 16.97 94.03 16.97C94.06 16.83 94.14 16.76 94.28 16.76L94.62 16.76L94.54 16.97L94.87 16.97C94.87 16.74 95.71 16.51 97.37 16.26C97.51 16.34 97.67 16.38 97.84 16.38C98.09 16.38 98.45 16.23 98.9 15.92C98.9 16.09 99.01 16.17 99.24 16.17C99.46 16.17 99.75 16.05 100.09 15.8C100.25 15.8 100.41 15.84 100.55 15.92C100.72 15.84 100.85 15.8 100.93 15.8L101.14 15.92C101.82 15.56 102.61 15.3 103.52 15.13C103.52 15.05 103.6 15.01 103.77 15.01C103.8 15.14 103.87 15.21 103.98 15.21C104.24 15.21 104.76 15.06 105.55 14.76C105.69 14.84 105.85 14.88 106.02 14.88L106.27 14.88L106.27 14.76C106.18 14.62 106.14 14.5 106.14 14.42L106.27 14.42C106.43 14.42 106.59 14.46 106.73 14.55L110.89 13.46L111.01 13.46L110.89 13.25L110.89 13.13C111.03 13.16 111.1 13.24 111.1 13.38L111.35 13.25L111.61 13.38C113.35 12.82 115.11 12.35 116.9 11.96L117.28 11.96L117.28 11.63L117.75 11.63C118.54 11.49 118.93 11.32 118.93 11.13L119.27 11.38C119.7 11.16 120.33 10.92 121.18 10.67L121.18 10.54L121.77 10.67C123.1 10.2 124.13 9.93 124.86 9.88C124.86 9.79 124.95 9.75 125.12 9.75L125.33 9.88L126.52 9.38L126.77 9.38L127.11 9.63L127.24 9.63L127.11 9.38C127.53 9.24 127.93 9.04 128.29 8.79L128.63 8.79C128.63 8.68 128.76 8.57 129.01 8.46C129.01 8.57 129.13 8.68 129.35 8.79C129.35 8.65 129.48 8.58 129.73 8.58L130.33 8.71C130.33 8.54 130.4 8.46 130.54 8.46C130.71 8.54 130.84 8.58 130.92 8.58L131.51 8.13L131.6 8.13L131.51 8.33L131.51 8.46L131.6 8.46C132.92 8.04 133.8 7.69 134.23 7.42L134.82 7.54C134.85 7.38 134.93 7.29 135.07 7.29L135.28 7.42L135.41 7.42L135.41 7.29L135.16 7.29L135.16 7.04L136 7.17L136.13 7.17L136 6.96L136 6.83L137.06 6.46L137.06 6.58L136.94 6.83L137.53 6.83C137.78 6.61 138.77 6.33 140.49 6C140.52 5.89 141.55 5.58 143.59 5.08C143.61 4.92 143.7 4.83 143.84 4.83L144.05 4.96C144.45 4.79 145.96 4.4 148.58 3.79C148.58 3.71 148.61 3.66 148.67 3.66L149.64 3.66L150.24 3.79L150.24 3.33C150.35 3.33 150.81 3.21 151.63 2.96L152.1 2.96L152.1 3.08L152.01 3.33L152.1 3.33C153.09 3.03 153.72 2.87 154 2.87L154 2.96C153.92 3.18 152.47 3.61 149.64 4.25L141.09 6.58L141.09 6.83L141.21 6.83C141.95 6.58 142.39 6.46 142.53 6.46L142.53 6.58L142.99 6.37C143.1 6.42 143.21 6.45 143.33 6.46C143.73 6.26 143.92 6.11 143.92 6L144.52 6.12C144.91 5.82 145.2 5.67 145.37 5.67L145.96 5.79C145.99 5.62 146.07 5.54 146.21 5.54L146.42 5.67C146.42 5.42 146.95 5.22 147.99 5.08L148.2 5.08L148.2 5.42L148.58 5.42L148.46 4.83L149.18 4.83L149.85 4.37L149.98 4.37L150.24 4.5C150.26 4.33 150.33 4.25 150.45 4.25L150.57 4.25C150.57 4.44 150.66 4.64 150.83 4.83L150.45 5.29C150.53 5.29 150.57 5.33 150.57 5.42L150.45 5.42C150.31 5.42 150.24 5.3 150.24 5.08C150.07 5.11 149.98 5.18 149.98 5.29C150.15 5.37 150.28 5.42 150.36 5.42C150.36 5.69 149.8 5.85 148.67 5.87C148.75 5.73 148.8 5.62 148.8 5.54L148.67 5.54C148.56 5.62 148.33 5.67 147.99 5.67C147.99 5.8 148.1 5.87 148.33 5.87L148.33 6.12L147.74 6.25L147.61 6C147.61 5.92 147.65 5.87 147.74 5.87L147.61 5.67L147.61 5.54L147.99 5.54L147.99 5.42C147.91 5.42 147.78 5.37 147.61 5.29C147.38 5.46 147.09 5.55 146.8 5.54L146.8 5.79C146.97 5.79 147.2 5.9 147.48 6.12L147.61 6.12L147.4 6.46C147.45 6.62 147.48 6.75 147.48 6.83C146.58 7.06 145.99 7.25 145.7 7.42C145.56 7.42 145.49 7.33 145.49 7.17C146.68 6.81 147.27 6.57 147.27 6.46L146.8 6.46L146.8 6.25L147.02 6.25L147.02 6L146.89 6C146.38 6.56 145.83 6.83 145.24 6.83C145.15 6.67 145.11 6.54 145.11 6.46L145.03 6.46L144.64 6.71L144.43 6.58L144.31 6.83L144.64 6.83L144.64 7.04C143.23 7.46 142.53 7.74 142.53 7.88L142.65 7.88L143.46 7.75L143.46 7.88C143.46 8.01 142.82 8.25 141.55 8.58C141.55 8.67 141.48 8.71 141.34 8.71C141.09 8.71 140.96 8.54 140.96 8.21L140.75 8.21C140.41 8.77 140.08 9.04 139.77 9.04L139.77 8.92C139.46 9.09 139.19 9.17 138.97 9.17L138.97 8.92C139.56 8.78 139.92 8.71 140.03 8.71L139.9 8.46C135.55 9.63 133.35 10.29 133.29 10.46C135.06 10.09 136.8 9.62 138.5 9.04C138.5 9.13 138.86 9.36 139.56 9.75C139.28 9.89 138.8 10.04 138.12 10.21L138.12 10.09L137.91 10.21L137.44 10.21C137.56 9.93 138.07 9.78 138.97 9.75C138.97 9.58 138.88 9.5 138.71 9.5L138.12 9.5C137.39 9.75 136.92 9.88 136.72 9.88L136.47 9.88C136.47 10.13 135.83 10.35 134.56 10.54C134.56 10.71 134.34 10.79 133.89 10.79L133.97 11.04C134.34 10.88 134.86 10.79 135.54 10.79L135.75 10.79C135.75 10.49 135.99 10.34 136.47 10.34L137.06 10.34L137.06 10.54L136.85 10.54C136.6 10.54 136.12 10.71 135.41 11.04C134.79 11.04 133.8 11.35 132.45 11.96C131.66 11.96 131.26 12.07 131.26 12.3C131.15 12.25 131.04 12.22 130.92 12.21L130.41 12.42C130.41 12.28 130.34 12.21 130.2 12.21C130.2 12.49 129.76 12.68 128.89 12.8L128.63 12.67L128.55 12.67L128.55 12.8L128.76 12.8C128.76 12.93 128.69 13 128.55 13L127.96 12.88C127.93 12.99 127.53 13.23 126.77 13.59C126.77 13.5 126.73 13.46 126.64 13.46C126.56 13.63 126.52 13.76 126.52 13.84L126.39 13.84C126.39 13.67 126.35 13.59 126.26 13.59L126.05 13.71L125.8 13.59C125.71 13.59 125.51 13.78 125.2 14.17C125.2 14.03 125.13 13.96 124.99 13.96L124.61 13.96C124.3 14.19 123.59 14.41 122.49 14.63C122.41 14.32 122.25 14.17 122.03 14.17C121.86 14.25 121.73 14.3 121.64 14.3L121.64 14.42C121.98 14.42 122.15 14.49 122.15 14.63C121.67 14.83 121.43 14.99 121.43 15.13L121.56 15.13L121.43 15.34L121.43 15.46C124.26 14.77 126.5 14.1 128.17 13.46C128.25 13.46 128.29 13.5 128.29 13.59C128.92 13.28 129.35 13.13 129.61 13.13L129.82 13.25C129.82 13.09 131.17 12.66 133.89 11.96C143.15 9.32 148.51 7.85 149.98 7.54L149.98 7.75L136.26 11.63C135.13 11.93 134.49 12.16 134.35 12.3C133.99 12.3 132.05 12.81 128.55 13.84C128.29 13.98 126.78 14.41 124.02 15.13C123.9 15.13 123.51 15.31 122.83 15.67C122.72 15.63 122.61 15.6 122.49 15.59C122.41 15.73 122.36 15.84 122.36 15.92L121.77 15.8L121.64 15.8L121.64 15.92L121.9 15.92L121.9 16.17C119.92 16.53 118.82 16.88 118.6 17.21C118.43 17.13 118.3 17.09 118.21 17.09C117.9 17.37 116.56 17.8 114.19 18.38C114.19 18.47 114.15 18.51 114.06 18.51C113.92 18.43 113.81 18.38 113.72 18.38L113.6 18.59L113 18.51C112.75 18.51 112.48 18.66 112.2 18.97C112.03 18.88 111.9 18.84 111.82 18.84L111.69 19.09L111.48 18.97L111.22 18.97C111.22 19.19 111.15 19.3 111.01 19.3L110.76 19.3L110.17 19.17C110.17 19.34 109.97 19.51 109.57 19.68L108.85 19.55C107.81 20.24 103.23 21.33 95.13 22.8C93.15 23.19 90.58 23.58 87.42 23.97L87.42 23.84C82.82 24.57 77.99 24.93 72.93 24.93L72.72 24.93C72.44 25.21 71.65 27.96 70.35 33.18C66.54 45 63.49 53.24 61.2 57.91C61 58.6 60.5 59.27 59.68 59.91L59.42 59.91C58.63 59.91 58.24 59.83 58.24 59.66L58.02 59.79L57.9 59.79L55.78 58.99C55.69 58.99 55.57 59.02 55.4 59.08C54.83 59.08 54.28 58.69 53.75 57.91C55.64 53.99 57.02 50.81 57.9 48.36L60.01 42.86C60.01 42.66 60.45 41.47 61.33 39.27C62.43 36.02 63.57 32.09 64.76 27.47C64.9 27.47 65.22 26.58 65.73 24.8C61.92 24.16 59.39 23.39 58.15 22.47C57.76 22.47 56.68 21.69 54.93 20.13L54.93 19.76L55.19 19.76L55.19 19.55C54.79 18.97 54.55 18.23 54.47 17.34C54.38 17.34 54.34 17.3 54.34 17.21L54.47 16.97C54.38 16.83 54.34 16.67 54.34 16.51L54.47 16.51L54.34 16.26L54.34 16.17C54.42 15.01 54.66 14.42 55.06 14.42L60.61 16.97L64.17 17.92L64.42 17.8C64.87 17.94 65.86 18.13 67.39 18.38C67.78 17.38 68.18 16.13 68.57 14.63C69.09 12.53 69.76 10.47 70.56 8.46C70.67 7.85 70.87 7.54 71.16 7.54C71.16 7.46 71.13 7.42 71.07 7.42C71.07 6.67 71.38 6 72 5.42L71.87 5.21C72.41 4.82 72.76 4.62 72.93 4.62C72.93 4.37 72.91 4.25 72.85 4.25C72.85 4.08 72.96 3.62 73.19 2.87L73.78 2.87C74.29 1.29 74.88 0.12 75.56 -0.63ZM76.62 1.33L76.87 1.33L76.87 1.71L76.36 1.71L76.36 1.58C76.39 1.41 76.48 1.33 76.62 1.33ZM155.57 1.91L155.57 2.16C155.01 2.3 154.68 2.37 154.6 2.37L154.47 2.16C154.84 2 155.21 1.91 155.57 1.91ZM156.17 2.29L156.5 2.29L156.5 2.5L155.91 2.5C155.94 2.36 156.02 2.29 156.17 2.29L156.17 2.29ZM155.78 2.5C155.78 2.69 155.32 2.84 154.39 2.96L154.26 2.75C155.05 2.58 155.56 2.5 155.78 2.5ZM157.44 2.62L157.69 2.62C157.69 2.82 157.34 2.93 156.63 2.96L156.63 2.75L157.44 2.62ZM150.57 3.54L150.57 3.66L150.7 3.66C151.32 3.58 151.63 3.47 151.63 3.33L151.5 3.33C151.45 3.33 151.14 3.4 150.57 3.54ZM155.19 3.21L155.19 3.46L154.98 3.33C154.98 3.47 154.89 3.54 154.73 3.54L154.6 3.54C154.46 3.54 154.39 3.47 154.39 3.33L155.19 3.21ZM154.39 3.46L154.13 3.79C154.22 3.93 154.26 4.04 154.26 4.12L154.13 4.12L153.79 3.91L153.41 3.91L153.54 4.12L153.54 4.25L153.28 4.25C153.17 4.25 153.06 4.14 152.95 3.91C153.12 3.75 153.6 3.6 154.39 3.46L154.39 3.46ZM152.61 3.79L152.82 4.37L152.48 4.62L152.35 4.62C152.18 4.62 152.1 4.54 152.1 4.37L152.61 4.37L152.61 4.25L152.1 4.25C152.1 4.42 152.03 4.5 151.89 4.5C151.72 4.5 151.63 4.42 151.63 4.25C151.63 4.11 151.96 3.96 152.61 3.79ZM150.83 4.25L151.42 4.25C151.42 4.55 151.49 4.71 151.63 4.71L152.61 4.71L152.61 4.83C152.61 5 152.24 5.12 151.5 5.21L151.5 5.08L151.63 4.83C151.21 4.83 150.94 4.68 150.83 4.37L150.83 4.25ZM150.24 4.62L150.11 4.83L150.11 4.96C150.25 4.87 150.41 4.83 150.57 4.83L150.57 4.71C150.46 4.7 150.34 4.67 150.24 4.62L150.24 4.62ZM75.69 4.71L75.56 5.29C75.67 5.29 75.83 5.14 76.03 4.83L75.77 4.71L75.69 4.71ZM148.92 5.08L148.92 5.29C149.09 5.29 149.18 5.37 149.18 5.54L149.52 5.54C149.68 5.54 149.77 5.46 149.77 5.29C149.6 5.29 149.52 5.22 149.52 5.08L149.85 5.08L149.85 4.83C149.63 5 149.32 5.08 148.92 5.08ZM151.42 5.42L151.63 5.42L151.63 5.67L151.17 5.67C151.2 5.5 151.28 5.42 151.42 5.42ZM75.31 5.67C75.31 5.78 75.23 5.93 75.09 6.12L75.09 6.25C75.21 6.25 75.36 6.1 75.56 5.79L75.31 5.67L75.31 5.67ZM143.59 6.58C143.67 6.58 143.78 6.62 143.92 6.71L144.05 6.71L144.05 6.58C143.91 6.58 143.84 6.51 143.84 6.37C143.67 6.4 143.59 6.47 143.59 6.58ZM137.53 6.37L137.66 6.37L137.66 6.46C137.66 6.62 137.59 6.71 137.44 6.71L137.32 6.46L137.53 6.37ZM140.37 6.83C140.45 6.97 140.49 7.13 140.49 7.29L140.62 7.29C140.62 7.15 140.73 6.96 140.96 6.71L140.75 6.71C140.58 6.79 140.45 6.83 140.37 6.83L140.37 6.83ZM143.12 6.71L143.25 6.96C143.39 6.88 143.5 6.83 143.59 6.83L143.59 6.71L143.12 6.71ZM143.84 7.04L143.92 7.04C144.09 7.04 144.18 6.97 144.18 6.83L144.05 6.83C143.91 6.86 143.84 6.93 143.84 7.04ZM149.05 6.71L149.39 6.71L149.39 6.96L149.05 6.96L149.05 6.71L149.05 6.71ZM76.15 8.21C76.38 8.21 76.58 7.82 76.75 7.04L76.62 7.04C76.39 7.04 76.24 7.43 76.15 8.21ZM138.59 7.54L140.03 7.17L140.03 7.04L139.9 7.04C139.03 7.15 138.59 7.32 138.59 7.54ZM142.53 7.42L142.74 7.42C142.91 7.33 143.03 7.29 143.12 7.29L143.12 7.17L142.74 7.17C142.6 7.19 142.53 7.28 142.53 7.42L142.53 7.42ZM148.2 7.04L148.33 7.29L147.99 7.54L147.14 7.54C147.14 7.4 147.5 7.24 148.2 7.04ZM144.77 7.29L145.24 7.29C145.24 7.46 145.17 7.54 145.03 7.54L144.77 7.54L144.77 7.29L144.77 7.29ZM137.53 7.62L137.53 7.88L137.66 7.88L137.91 7.75C138.05 7.83 138.21 7.88 138.38 7.88L138.5 7.88C138.5 7.76 138.35 7.65 138.04 7.54C138.04 7.6 138 7.62 137.91 7.62L137.91 7.54C137.79 7.59 137.66 7.62 137.53 7.63L137.53 7.62ZM146.08 7.54L146.21 7.54C146.35 7.54 146.42 7.61 146.42 7.75L146.42 7.88L146.08 7.88L146.08 7.54ZM130.2 9.75L130.2 9.88L130.54 9.88C130.82 9.71 131.34 9.54 132.11 9.38C132.11 9.49 132.22 9.61 132.45 9.75L132.57 9.75C132.4 9.56 132.32 9.43 132.32 9.38C132.57 9.24 132.81 9.17 133.04 9.17L133.63 9.29L133.5 9.04L137.19 8L137.19 7.75L130.2 9.75ZM144.9 7.88L145.37 7.88C145.37 8.04 145.28 8.12 145.11 8.12L144.9 8.12L144.9 7.88ZM138.5 8.12L138.5 8.33C138.76 8.33 138.95 8.37 139.1 8.46L139.1 8.21L138.5 8.12ZM70.69 8.71L70.69 9.29L70.82 9.29L70.94 8.71L70.69 8.71ZM137.06 8.71C137.09 8.85 137.17 8.92 137.32 8.92L137.44 8.92C137.44 8.78 137.36 8.71 137.19 8.71L137.06 8.71ZM129.48 8.79L129.48 8.92L129.95 8.92L129.95 8.79L129.48 8.79ZM141.68 8.79L142.06 8.79C142.06 8.96 141.98 9.04 141.81 9.04L141.68 9.04L141.68 8.79ZM74.71 9.29L74.71 9.5C74.88 9.42 75.01 9.38 75.09 9.38L75.09 9.04L74.97 9.04C74.8 9.07 74.71 9.15 74.71 9.29ZM73.31 9.17L73.31 9.5C73.46 9.5 73.53 9.43 73.53 9.29L73.53 9.17L73.31 9.17ZM141.09 9.04L141.09 9.29L140.49 9.38C140.49 9.21 140.69 9.1 141.09 9.04ZM139.69 9.38L140.28 9.38L140.28 9.63C140 9.71 139.83 9.75 139.77 9.75L139.69 9.5L139.69 9.38ZM128.17 10.33L128.17 10.46L128.42 10.46C128.56 10.46 128.8 10.38 129.14 10.21C129.28 10.29 129.39 10.33 129.48 10.33L129.61 10.08L129.35 10.08C129.16 10.08 128.76 10.17 128.17 10.34L128.17 10.33ZM124.4 10.21L124.4 10.33L124.86 10.33L124.86 10.21L124.4 10.21ZM126.77 10.92L127.11 10.92L127.45 10.67C127.62 10.75 127.74 10.79 127.83 10.79L127.96 10.54C127.79 10.54 127.7 10.52 127.7 10.46C127.08 10.63 126.77 10.78 126.77 10.92ZM131.6 11.04L131.73 11.04C131.89 11.04 131.98 10.96 131.98 10.79L131.85 10.79C131.68 10.82 131.6 10.9 131.6 11.04ZM133.17 11.04C133.17 10.96 133.12 10.92 133.04 10.92C133.04 11.06 132.21 11.32 130.54 11.71L130.54 11.96L130.92 11.96C131.12 11.82 132.06 11.52 133.76 11.04L133.76 10.79L133.5 10.79L133.17 11.04ZM127.57 12.09L127.96 12.09L127.96 11.83L127.83 11.83C127.66 11.86 127.57 11.95 127.57 12.09ZM128.89 12.09L128.89 12.29L130.07 12.21L130.07 12.09C129.99 12.09 129.88 12.04 129.73 11.96C129.46 12.04 129.17 12.08 128.89 12.09ZM73.53 12.21L73.53 12.54L73.91 12.54L73.91 12.21L73.53 12.21ZM125.8 13L125.8 13.13L126.05 13.13C126.33 13.13 127.19 12.89 128.63 12.42L128.63 12.29L128.29 12.29C127.84 12.55 127.01 12.78 125.8 13L125.8 13ZM125.58 12.67L125.8 12.67C125.97 12.59 126.09 12.54 126.18 12.54L126.18 12.42L125.8 12.42C125.65 12.45 125.58 12.53 125.58 12.67ZM122.83 13.38L122.83 13.59L123.68 13.46L123.55 13.25L122.83 13.38ZM122.24 13.46L122.24 13.59L122.75 13.59L122.62 13.38C122.5 13.42 122.37 13.45 122.24 13.46ZM124.74 13.59L124.99 13.59C125.13 13.59 125.2 13.52 125.2 13.38L124.99 13.38C124.82 13.38 124.74 13.45 124.74 13.59ZM123.34 13.71L123.34 13.96C123.59 13.96 123.79 13.99 123.93 14.05C123.93 13.82 124.16 13.71 124.61 13.71L124.61 13.46L124.53 13.46C123.96 13.63 123.56 13.71 123.34 13.71ZM120.59 13.96L120.59 14.05L121.05 14.05C121.22 14.05 121.31 13.98 121.31 13.84C121.22 13.84 121.18 13.8 121.18 13.71C120.92 13.88 120.73 13.96 120.59 13.96ZM122.49 14.05L122.49 14.17C122.66 14.17 122.82 14.13 122.96 14.05L123.21 14.17L123.34 14.17L123.34 14.05C123.09 14.05 122.96 13.93 122.96 13.71C122.65 13.82 122.49 13.93 122.49 14.05ZM118.93 15L118.93 15.13L119.06 15.13L120.59 14.75C120.76 14.84 120.88 14.88 120.97 14.88L120.97 15C120.97 15.14 120.88 15.21 120.71 15.21C120.54 15.21 120.39 15.18 120.25 15.13L119.53 15.46L119.27 15.34C119.27 15.45 119.08 15.6 118.68 15.8L118.47 15.8L118.21 15.67C118.21 15.84 118.02 15.92 117.62 15.92L117.75 16.17L117.49 16.26C117.49 16.12 117.42 16.05 117.28 16.05C117.11 16.13 116.99 16.17 116.9 16.17C117.07 16.37 117.16 16.52 117.16 16.63L117.41 16.63L117.28 16.38L117.28 16.26L117.87 16.38C118.02 16.38 118.09 16.31 118.09 16.17L118.34 16.26L118.6 16.26L118.47 16.05L118.68 15.92C118.71 16.09 118.79 16.17 118.93 16.17L119.19 16.17L119.06 15.92L119.27 15.8L119.27 16.05C120.29 15.85 120.97 15.57 121.31 15.21L121.18 15L121.56 14.42L120.97 14.42L120.97 14.75L120.84 14.75L120.84 14.42L118.93 15ZM116.9 15.67L117.41 15.67C117.55 15.67 117.62 15.6 117.62 15.46L117.16 15.46C116.99 15.49 116.9 15.56 116.9 15.67ZM113.85 16.38L113.85 16.51L114.32 16.51L114.32 16.26L114.19 16.26C114.05 16.34 113.94 16.38 113.85 16.38ZM116.56 16.38L116.56 16.51C116.59 16.67 116.67 16.76 116.82 16.76L116.9 16.76L116.9 16.38L116.56 16.38ZM115.63 16.51C115.63 16.67 115.59 16.83 115.5 16.96L115.84 16.96L115.84 16.76L116.1 16.84L116.43 16.84L116.43 16.76C116.43 16.59 116.36 16.5 116.22 16.5L115.63 16.5L115.63 16.51ZM115.04 16.76C115.04 16.89 114.95 16.96 114.78 16.96C114.81 17.13 114.9 17.21 115.04 17.21L115.25 17.21L115.25 17.09L115.12 16.84C115.21 16.84 115.25 16.81 115.25 16.76L115.04 16.76ZM111.01 17.8L111.1 18.01C110.96 18.09 110.84 18.13 110.76 18.13C110.79 18.3 110.87 18.38 111.01 18.38C111.86 18.05 112.41 17.77 112.66 17.55C112.86 17.55 113.09 17.63 113.34 17.8L113.47 17.55C113.39 17.55 113.34 17.51 113.34 17.42L113.94 17.55L114.66 17.34C114.66 17.17 114.59 17.09 114.44 17.09L114.32 17.09L113.94 17.34C113.94 17.17 113.91 17.09 113.85 17.09C113.68 17.17 113.55 17.21 113.47 17.21L113.47 17.09C112.23 17.56 111.41 17.8 111.01 17.8ZM109.45 18.38C109.47 18.52 109.56 18.59 109.7 18.59C110.26 18.59 110.58 18.48 110.63 18.26L110.04 18.13L110.04 18.38L109.91 18.38L109.91 18.13L109.7 18.13C109.53 18.16 109.45 18.24 109.45 18.38ZM108.51 18.51L108.51 18.59L109.23 18.72C109.23 18.6 109.11 18.49 108.85 18.38C108.71 18.47 108.6 18.51 108.51 18.51ZM85.26 28.68L87.12 28.68C91.61 28.68 95.14 30.67 97.71 34.64C98.5 36.39 99.08 38.09 99.45 39.73L99.28 40.48L99.28 41.11C99.28 41.33 99.34 41.54 99.45 41.73C99.03 44.23 98.24 46.66 97.12 48.94C97.12 49.92 96.39 51.41 94.92 53.41C94.01 53.57 92.93 54.34 91.66 55.7C90.7 56.12 89.44 56.83 87.89 57.83L88.06 57.83C89.35 57.44 90.13 57.24 90.38 57.24L90.38 57.53L83.06 59.99C81.11 59.99 79.09 59.27 77 57.83C76.18 57.05 75.19 55.67 74.03 53.7C74.03 53.56 73.46 52.13 72.3 49.4C72.19 48.18 72.03 47.57 71.83 47.57C71.83 43.87 73.81 40.84 77.76 38.48C79.2 37.84 80.56 37.38 81.83 37.1C81.83 36.99 81.87 36.94 81.96 36.94C83.28 37.21 84.17 37.73 84.62 38.48C84.62 38.67 84.88 39.19 85.39 40.02L85.39 40.48C85.39 41.06 84.82 41.79 83.69 42.65C83.89 42.68 83.99 42.77 83.99 42.94C83.2 43.33 82.52 44.05 81.96 45.11L81.96 45.4L82.13 45.4L82.93 44.94L83.52 44.94L80.26 47.24C79.1 48.43 78.37 49.61 78.06 50.78C78.06 51 78.48 51.31 79.33 51.7L80.09 51.7C81.98 51.7 84.64 50.88 88.06 49.24C90.48 47.46 92.21 45.51 93.22 43.4C93.93 42.12 94.44 40.38 94.75 38.19L94.75 37.1C94.01 35.96 92.4 35.1 89.92 34.52C88.99 34.52 88.21 34.41 87.59 34.19L84.92 34.52L84.92 34.19C85.06 34.19 85.64 34.09 86.66 33.89L89.33 33.89L90.09 34.02L90.26 33.73L89.92 33.56C89.04 33.67 88.32 33.73 87.76 33.73L85.39 32.98L85.09 32.98C84.87 32.98 84.65 33.02 84.46 33.1C84.27 33.01 84.07 32.97 83.86 32.98L83.06 33.1C82.49 32.41 82.08 32.06 81.83 32.06C81.41 31.89 81.19 31.74 81.19 31.6C81.19 31.49 81.41 31.17 81.83 30.64C81.83 30.22 81.56 29.82 81.03 29.43C82.27 28.93 83.68 28.68 85.26 28.68ZM118.55 31.6L118.55 31.73C118.44 32 118.14 32.14 117.66 32.14L117.66 32.43L117.96 32.43C118.21 32.24 119.02 32 120.37 31.73L121.09 31.89C121.15 31.89 121.35 31.84 121.69 31.73C122.59 31.73 124.16 32.3 126.39 33.43C127.15 34.07 127.53 34.45 127.53 34.56C127.45 34.73 127.4 34.87 127.4 34.98C128.14 35.45 129.18 36.38 130.54 37.77C131.84 36.44 133.89 35.17 136.68 33.98L137.4 33.85L137.4 33.98C137.83 33.61 138.87 33.24 140.53 32.85L140.53 33.02L141.38 32.73C141.55 32.81 141.69 32.85 141.81 32.85C142.48 32.77 142.87 32.73 142.95 32.73C143.06 32.73 143.64 32.91 144.69 33.27C144.69 33.13 144.87 32.99 145.24 32.85C146.8 33.48 148.32 34.19 149.81 34.98C150.81 35.32 151.73 35.84 152.52 36.52C153.71 36.8 155.04 38.2 156.5 40.73C157.55 41.93 158.13 42.58 158.24 42.69C158.72 44.05 158.96 44.9 158.96 45.23C158.85 45.23 158.79 45.28 158.79 45.36C158.99 45.36 159.09 45.5 159.09 45.78C158.89 45.97 158.75 46.96 158.66 48.74C157.59 51.27 154.22 54.45 148.54 58.28C143.46 61.7 138.93 64.43 134.94 66.46C131.36 68.88 128.22 71.17 125.54 73.34C118.82 79.7 115.15 83.64 114.53 85.14C113.15 87.03 112.38 87.97 112.24 87.97L111.82 87.97L111.82 88.1L112.11 88.51L111.95 88.51L111.69 88.39L111.27 88.39C111.27 88.17 111.07 88.03 110.67 87.97L110.67 87.56L110.38 87.56C110.38 87.83 110.29 87.97 110.12 87.97L109.95 87.97L109.95 87.81C109.95 87.64 110.15 87.18 110.55 86.43L110.25 86.55C110.05 86.55 109.95 86.46 109.95 86.26C111 84.68 111.62 83.89 111.82 83.89L111.82 83.76C111.25 83.76 110.97 83.62 110.97 83.34L112.24 81.63L112.54 81.76C112.54 81.18 113.06 80.34 114.1 79.26L114.23 79.26L114.23 79.38L113.81 79.97L113.81 80.38L113.98 80.38C114.12 80.38 114.36 80.11 114.7 79.55L114.7 79.09C114.39 79.09 114.23 79.01 114.23 78.84C116.04 76.48 117.18 75.3 117.66 75.3L117.66 75.59L117.96 75.59L117.66 75.17C117.97 74.67 118.69 73.82 119.82 72.63L119.82 72.5L119.7 72.5C119.5 72.59 119.34 72.63 119.23 72.63C119.23 72.49 119.57 72.17 120.25 71.67L120.54 71.79L120.67 71.79L120.67 71.67L120.37 71.67C120.4 71.47 120.5 71.38 120.67 71.38L120.97 71.5L121.09 71.5L121.09 71.38L120.8 71.38L120.8 71.08C120.8 70.92 120.95 70.83 121.26 70.83L121.26 70.54C120.11 71.32 119.53 71.78 119.53 71.92C118.34 72.97 117.72 73.5 117.66 73.5L117.54 73.5L117.54 73.34L117.66 73.04L117.54 73.04C117.42 73.04 117 73.48 116.27 74.34L116.27 74.46L116.52 74.46L116.52 74.75C116.24 75.23 115.48 76.08 114.23 77.3L113.55 76.71C113.64 76.6 113.68 76.37 113.68 76.01L113.55 76.01L113.55 75.88C113.55 75.69 113.74 75.59 114.1 75.59L113.98 75.3C113.98 75.16 114.54 74.78 115.67 74.17C116.43 73.53 117.44 72.46 118.68 70.96L118.55 70.96L118.26 71.09L118.09 70.83C118.4 70.72 118.69 70.39 118.98 69.83L119.23 69.83L119.23 69.71L119.1 69.42C119.41 69.21 119.76 69.07 120.12 69L119.95 68.71L120.8 68.12C120.71 68.12 120.67 68.08 120.67 68C121.94 67.17 122.66 66.75 122.83 66.75C123.77 66.04 124.62 65.23 125.37 64.33C126.08 63.83 127.22 63.14 128.8 62.25C128.8 61.86 129.38 61.34 130.54 60.7L130.12 60.7L130.12 60.54C131.53 59.51 132.43 58.99 132.83 58.99L132.83 59.16L133.08 58.99L133.67 59.16L135.54 58.16C136.53 57.33 137.15 56.91 137.4 56.91L137.4 56.74L136.81 56.74L136.81 56.49C137.03 56.49 138.22 55.74 140.37 54.24L144.22 51.82C144.33 51.82 144.49 51.78 144.69 51.7C144.83 51.78 145.01 51.82 145.24 51.82C145.77 51.35 146.16 50.93 146.38 50.57C147.06 50.57 147.4 50.2 147.4 49.45L147.65 49.45L147.65 49.86L147.82 49.86C147.96 49.86 148.1 49.72 148.24 49.45L147.95 49.03C147.95 48.94 148.51 48.47 149.64 47.61L149.81 47.61L150.11 47.78C150.11 47.53 150.29 47.33 150.66 47.19C150.66 46.64 150.86 46.36 151.25 46.36C151.82 45.8 152.1 45.39 152.1 45.11C152.27 45.11 152.51 44.58 152.82 43.53C153.05 43.53 153.28 43.07 153.54 42.15C153.54 41.01 151.34 40.16 146.93 39.61C146.54 39.61 146.01 39.56 145.37 39.48C142.85 39.65 140.42 40.44 138.08 41.86C135.45 43.58 133.22 45.83 131.39 48.61C130.77 49.36 130.05 50.49 129.23 51.99L129.39 52.24L127.53 56.74C127.28 56.74 126.76 57.08 125.97 57.74L125.54 57.74C123.82 56.3 122.96 55.31 122.96 54.78C122.96 54.23 122.82 53.95 122.53 53.95C122.53 54.14 122.44 54.24 122.24 54.24L121.94 54.24C121.94 53.85 121.56 53 120.8 51.7C121 51.03 121.33 50.32 121.81 49.57C121.73 49.43 121.69 49.25 121.69 49.03C122 48.92 122.42 48.35 122.96 47.32L122.83 47.07C123.23 46.96 123.65 46.44 124.1 45.53C124.02 45.53 123.97 45.47 123.97 45.36L124.53 44.94L124.4 44.65L124.4 44.53L125.8 40.19L125.97 39.48C125.8 38.06 125.6 37.35 125.37 37.35C120.91 37.35 115.63 41.58 109.53 50.03C109.53 50.17 109.21 50.77 108.56 51.82L106.82 56.33L107.24 57.03L107.12 57.62C107.2 57.78 107.24 57.97 107.24 58.16L106.52 58.58L106.1 58.58C106.02 58.58 105.97 58.53 105.97 58.45C105.78 58.53 105.63 58.58 105.55 58.58C105.44 58.58 104.81 57.97 103.69 56.74C103.54 56.74 103.12 56.14 102.41 54.95C102.3 54.95 101.96 54.66 101.4 54.07C101.4 52.6 101.64 51.39 102.12 50.45C101.92 50.45 101.82 50.31 101.82 50.03C102.1 49.22 102.3 48.79 102.41 48.74L102.25 48.45L102.25 48.19C102.47 47.97 102.71 47.36 102.96 46.36C103.3 46.36 103.97 45.65 104.96 44.23C105.41 44.23 105.79 43.86 106.1 43.11L106.69 42.57L106.52 42.27C107.4 40.88 108.26 39.81 109.11 39.06C109.3 39.06 109.73 38.59 110.38 37.65L113.98 34.39L113.81 34.39C113.64 34.5 113.5 34.56 113.39 34.56L113.39 34.39C113.39 34.23 113.72 34.05 114.4 33.85C114.43 34.05 114.53 34.14 114.7 34.14C114.98 33.95 115.21 33.85 115.38 33.85L115.38 33.43L115.25 33.43C115.05 33.52 114.91 33.56 114.83 33.56L114.83 33.43C116.04 32.52 117.23 31.91 118.38 31.6L118.55 31.6ZM116.69 32.73L116.69 32.85L117.11 32.85C117.25 32.85 117.4 32.71 117.54 32.43L117.41 32.43C117.1 32.63 116.86 32.73 116.69 32.73ZM132.11 59.7L132.23 59.7C132.63 59.56 132.83 59.42 132.83 59.29L132.53 59.29C132.39 59.29 132.25 59.42 132.11 59.7ZM121.94 69.83C122 70.03 122.1 70.13 122.24 70.13L122.41 70.13C122.29 69.95 122.23 69.75 122.24 69.54C122.04 69.57 121.94 69.67 121.94 69.83ZM118.09 72.38L117.83 72.79L118.09 72.92C118.09 72.64 118.19 72.5 118.38 72.5L118.38 72.38L118.09 72.38ZM115.97 76.01L116.1 76.3L115.84 76.42L115.67 76.42L115.67 76.3C115.7 76.1 115.8 76.01 115.97 76.01ZM112.24 78.84L112.24 79.26L111.95 79.26L111.95 79.09C112 78.92 112.1 78.84 112.24 78.84ZM111.69 79.55L111.95 79.68L112.41 79.68C111.68 80.93 111.15 81.62 110.84 81.76L110.67 81.76L110.67 81.63C110.79 81.47 110.84 81.33 110.84 81.22L110.12 81.93L109.95 81.63C110.63 80.58 111.21 79.88 111.69 79.55ZM112.83 81.51L113.09 81.63L113.26 81.34L113.26 81.22L113.09 81.22C112.92 81.24 112.83 81.34 112.83 81.51ZM110.97 89.1C111.14 89.18 111.28 89.22 111.39 89.22L111.39 89.51C111.14 89.51 110.86 89.65 110.55 89.93L110.55 89.51C110.55 89.37 110.69 89.24 110.97 89.1ZM175.14 28.68L177.01 28.68C181.5 28.68 185.02 30.67 187.59 34.64C188.38 36.39 188.96 38.09 189.33 39.73L189.16 40.48L189.16 41.11C189.16 41.33 189.22 41.54 189.33 41.73C188.91 44.23 188.12 46.66 187 48.94C187 49.92 186.27 51.41 184.8 53.41C183.9 53.57 182.81 54.34 181.54 55.7C180.58 56.12 179.32 56.83 177.77 57.83L177.94 57.83C179.24 57.44 180.01 57.24 180.27 57.24L180.27 57.53L172.94 59.99C170.99 59.99 168.97 59.27 166.88 57.83C166.06 57.05 165.07 55.67 163.92 53.7C163.92 53.56 163.34 52.13 162.18 49.4C162.07 48.18 161.91 47.57 161.71 47.57C161.71 43.87 163.69 40.84 167.64 38.48C169.08 37.84 170.44 37.38 171.71 37.1C171.71 36.99 171.75 36.94 171.84 36.94C173.17 37.21 174.05 37.73 174.51 38.48C174.51 38.67 174.76 39.19 175.27 40.02L175.27 40.48C175.27 41.06 174.7 41.79 173.57 42.65C173.77 42.68 173.87 42.77 173.87 42.94C173.08 43.33 172.4 44.05 171.84 45.11L171.84 45.4L172.01 45.4L172.81 44.94L173.41 44.94L170.14 47.24C168.99 48.43 168.25 49.61 167.94 50.78C167.94 51 168.36 51.31 169.21 51.7L169.97 51.7C171.87 51.7 174.52 50.88 177.94 49.24C180.37 47.46 182.09 45.51 183.1 43.4C183.81 42.12 184.32 40.38 184.63 38.19L184.63 37.1C183.9 35.96 182.29 35.1 179.8 34.52C178.87 34.52 178.09 34.41 177.47 34.19L174.8 34.52L174.8 34.19C174.94 34.19 175.52 34.09 176.54 33.89L179.21 33.89L179.97 34.02L180.14 33.73L179.8 33.56C178.93 33.67 178.21 33.73 177.64 33.73L175.27 32.98L174.97 32.98C174.75 32.98 174.53 33.02 174.34 33.1C174.15 33.01 173.95 32.97 173.74 32.98L172.94 33.1C172.37 32.41 171.96 32.06 171.71 32.06C171.29 31.89 171.08 31.74 171.08 31.6C171.08 31.49 171.29 31.17 171.71 30.64C171.71 30.22 171.44 29.82 170.91 29.43C172.15 28.93 173.56 28.68 175.14 28.68ZM210.85 -0.63C210.93 -0.49 210.98 -0.33 210.98 -0.17L211.19 -0.3L211.19 -0.17C211.05 0.13 210.98 0.41 210.98 0.66L211.06 0.66L211.65 0.29L211.78 0.54C210.68 3.32 210.13 4.83 210.13 5.08L210 5.08L210.13 5.29L208.94 8L209.28 8C209.37 7.44 209.54 7.17 209.79 7.17C209.79 7.28 209.9 7.4 210.13 7.54C210.21 7.38 210.26 7.25 210.26 7.17L210.38 7.17C210.52 7.19 210.59 7.28 210.59 7.42C210.26 8.03 210.02 8.33 209.87 8.33L209.87 8.46C210.04 8.65 210.13 8.81 210.13 8.92L210.26 8.92C210.37 8.92 210.52 8.68 210.72 8.21L210.72 7.63C210.83 7.63 210.99 7.43 211.19 7.04L211.06 6.83L212.03 4.5C212.03 4.36 211.88 4.21 211.57 4.04C211.43 4.04 211.26 4.19 211.06 4.5C211.17 4.5 211.37 4.69 211.65 5.08C211.12 5.81 210.76 6.31 210.59 6.58L210.38 6.58L210.38 6.37L210.13 6.37C210.13 6.82 210.04 7.04 209.87 7.04C209.73 7.04 209.66 6.97 209.66 6.83C209.95 6.39 210.19 5.8 210.38 5.08C211.09 3.3 211.44 2.37 211.44 2.29L211.78 2.04L211.91 2.04C211.82 2.37 211.78 2.65 211.78 2.87C212.03 2.87 212.16 3.03 212.16 3.33L211.91 3.46L212.03 4.12L212.25 4.12C212.28 3.73 212.56 3.27 213.09 2.75C213.09 2.83 213.14 2.87 213.22 2.87C213.12 3.16 212.91 3.4 212.63 3.54C212.63 3.62 212.67 3.66 212.75 3.66C212.5 4.89 212.22 5.94 211.91 6.83L212.16 6.96C212.44 5.85 212.75 5.18 213.09 4.96C213.09 5.04 213.14 5.08 213.22 5.08C213.14 5.94 213.01 6.49 212.84 6.71L213.22 6.71C213.22 6.79 213.18 6.83 213.09 6.83L213.22 7.42C211.93 11.09 210.7 14.79 209.54 18.51C210.16 18.51 210.47 18.54 210.47 18.59L210.72 18.51C212.33 18.51 213.83 18.43 215.21 18.26C215.38 18.34 215.51 18.38 215.59 18.38C215.71 18.24 216.65 18.12 218.43 18.01C218.57 18.09 218.68 18.13 218.77 18.13C218.92 18.05 219.1 18 219.28 18.01C219.28 18.17 219.35 18.26 219.49 18.26C219.52 18.09 219.6 18.01 219.74 18.01L220.8 18.01L221.4 17.92C221.4 17.98 221.44 18.01 221.52 18.01C221.52 17.9 222.23 17.74 223.64 17.55L223.64 17.67L226.61 17.21C226.75 17.3 226.91 17.34 227.07 17.34C227.1 17.17 227.18 17.09 227.33 17.09L227.45 17.09C227.62 17.09 227.78 17.13 227.92 17.21C228.06 17.13 228.22 17.09 228.38 17.09L228.64 17.21C228.64 17.1 228.75 16.98 228.98 16.84C229.12 16.92 229.23 16.97 229.32 16.97C229.34 16.83 229.43 16.76 229.57 16.76L229.91 16.76L229.82 16.97L230.16 16.97C230.16 16.74 231 16.51 232.66 16.26C232.8 16.34 232.96 16.38 233.13 16.38C233.38 16.38 233.74 16.23 234.19 15.92C234.19 16.09 234.3 16.17 234.53 16.17C234.75 16.17 235.03 16.05 235.37 15.8C235.54 15.8 235.7 15.84 235.84 15.92C236.01 15.84 236.14 15.8 236.22 15.8L236.43 15.92C237.11 15.56 237.9 15.3 238.8 15.13C238.8 15.05 238.89 15.01 239.06 15.01C239.09 15.14 239.16 15.21 239.27 15.21C239.52 15.21 240.05 15.06 240.84 14.76C240.98 14.84 241.13 14.88 241.3 14.88L241.56 14.88L241.56 14.76C241.47 14.62 241.43 14.5 241.43 14.42L241.56 14.42C241.72 14.42 241.88 14.46 242.02 14.55L246.17 13.46L246.3 13.46L246.17 13.25L246.17 13.13C246.32 13.16 246.39 13.24 246.39 13.38L246.64 13.25L246.89 13.38C248.63 12.82 250.4 12.35 252.19 11.96L252.57 11.96L252.57 11.63L253.04 11.63C253.83 11.49 254.22 11.32 254.22 11.13L254.56 11.38C254.99 11.16 255.62 10.92 256.47 10.67L256.47 10.54L257.06 10.67C258.39 10.2 259.42 9.93 260.15 9.88C260.15 9.79 260.24 9.75 260.41 9.75L260.62 9.88L261.8 9.38L262.06 9.38L262.4 9.63L262.52 9.63L262.4 9.38C262.82 9.24 263.22 9.04 263.58 8.79L263.92 8.79C263.92 8.68 264.05 8.57 264.3 8.46C264.3 8.57 264.42 8.68 264.64 8.79C264.64 8.65 264.77 8.58 265.02 8.58L265.62 8.71C265.62 8.54 265.69 8.46 265.83 8.46C266 8.54 266.12 8.58 266.21 8.58L266.8 8.13L266.89 8.13L266.8 8.33L266.8 8.46L266.89 8.46C268.21 8.04 269.09 7.69 269.51 7.42L270.11 7.54C270.13 7.38 270.22 7.29 270.36 7.29L270.57 7.42L270.7 7.42L270.7 7.29L270.44 7.29L270.44 7.04L271.29 7.17L271.42 7.17L271.29 6.96L271.29 6.83L272.35 6.46L272.35 6.58L272.22 6.83L272.82 6.83C273.07 6.61 274.06 6.33 275.78 6C275.81 5.89 276.84 5.58 278.87 5.08C278.9 4.92 278.99 4.83 279.13 4.83L279.34 4.96C279.73 4.79 281.25 4.4 283.87 3.79C283.87 3.71 283.9 3.66 283.96 3.66L284.93 3.66L285.52 3.79L285.52 3.33C285.64 3.33 286.1 3.21 286.92 2.96L287.39 2.96L287.39 3.08L287.3 3.33L287.39 3.33C288.38 3.03 289.01 2.87 289.29 2.87L289.29 2.96C289.21 3.18 287.75 3.61 284.93 4.25L276.37 6.58L276.37 6.83L276.5 6.83C277.24 6.58 277.67 6.46 277.81 6.46L277.81 6.58L278.28 6.37C278.39 6.42 278.5 6.45 278.62 6.46C279.01 6.26 279.21 6.11 279.21 6L279.81 6.12C280.2 5.82 280.48 5.67 280.65 5.67L281.25 5.79C281.27 5.62 281.36 5.54 281.5 5.54L281.71 5.67C281.71 5.42 282.23 5.22 283.28 5.08L283.49 5.08L283.49 5.42L283.87 5.42L283.74 4.83L284.47 4.83L285.14 4.37L285.27 4.37L285.52 4.5C285.55 4.33 285.62 4.25 285.74 4.25L285.86 4.25C285.86 4.44 285.95 4.64 286.12 4.83L285.74 5.29C285.82 5.29 285.86 5.33 285.86 5.42L285.74 5.42C285.59 5.42 285.52 5.3 285.52 5.08C285.35 5.11 285.27 5.18 285.27 5.29C285.44 5.37 285.57 5.42 285.65 5.42C285.65 5.69 285.09 5.85 283.96 5.87C284.04 5.73 284.08 5.62 284.08 5.54L283.96 5.54C283.84 5.62 283.62 5.67 283.28 5.67C283.28 5.8 283.39 5.87 283.62 5.87L283.62 6.12L283.02 6.25L282.9 6C282.9 5.92 282.94 5.87 283.02 5.87L282.9 5.67L282.9 5.54L283.28 5.54L283.28 5.42C283.19 5.42 283.07 5.37 282.9 5.29C282.67 5.46 282.38 5.55 282.09 5.54L282.09 5.79C282.26 5.79 282.49 5.9 282.77 6.12L282.9 6.12L282.69 6.46C282.74 6.62 282.77 6.75 282.77 6.83C281.87 7.06 281.27 7.25 280.99 7.42C280.85 7.42 280.78 7.33 280.78 7.17C281.97 6.81 282.56 6.57 282.56 6.46L282.09 6.46L282.09 6.25L282.31 6.25L282.31 6L282.18 6C281.67 6.56 281.12 6.83 280.53 6.83C280.44 6.67 280.4 6.54 280.4 6.46L280.31 6.46L279.93 6.71L279.72 6.58L279.59 6.83L279.93 6.83L279.93 7.04C278.52 7.46 277.81 7.74 277.81 7.88L277.94 7.88L278.75 7.75L278.75 7.88C278.75 8.01 278.11 8.25 276.84 8.58C276.84 8.67 276.77 8.71 276.63 8.71C276.37 8.71 276.25 8.54 276.25 8.21L276.04 8.21C275.7 8.77 275.37 9.04 275.06 9.04L275.06 8.92C274.75 9.09 274.48 9.17 274.26 9.17L274.26 8.92C274.85 8.78 275.2 8.71 275.32 8.71L275.19 8.46C270.84 9.63 268.64 10.29 268.58 10.46C270.35 10.09 272.08 9.62 273.79 9.04C273.79 9.13 274.14 9.36 274.85 9.75C274.57 9.89 274.09 10.04 273.41 10.21L273.41 10.09L273.2 10.21L272.73 10.21C272.85 9.93 273.35 9.78 274.26 9.75C274.26 9.58 274.17 9.5 274 9.5L273.41 9.5C272.68 9.75 272.21 9.88 272.01 9.88L271.76 9.88C271.76 10.13 271.12 10.35 269.85 10.54C269.85 10.71 269.63 10.79 269.17 10.79L269.26 11.04C269.63 10.88 270.15 10.79 270.82 10.79L271.04 10.79C271.04 10.49 271.28 10.34 271.76 10.34L272.35 10.34L272.35 10.54L272.14 10.54C271.88 10.54 271.41 10.71 270.7 11.04C270.08 11.04 269.09 11.35 267.73 11.96C266.94 11.96 266.55 12.07 266.55 12.3C266.44 12.25 266.33 12.22 266.21 12.21L265.7 12.42C265.7 12.28 265.63 12.21 265.49 12.21C265.49 12.49 265.05 12.68 264.18 12.8L263.92 12.67L263.84 12.67L263.84 12.8L264.05 12.8C264.05 12.93 263.98 13 263.84 13L263.24 12.88C263.22 12.99 262.82 13.23 262.06 13.59C262.06 13.5 262.01 13.46 261.93 13.46C261.85 13.63 261.8 13.76 261.8 13.84L261.68 13.84C261.68 13.67 261.63 13.59 261.55 13.59L261.34 13.71L261.08 13.59C261 13.59 260.8 13.78 260.49 14.17C260.49 14.03 260.42 13.96 260.28 13.96L259.9 13.96C259.59 14.19 258.88 14.41 257.78 14.63C257.7 14.32 257.54 14.17 257.31 14.17C257.14 14.25 257.02 14.3 256.93 14.3L256.93 14.42C257.27 14.42 257.44 14.49 257.44 14.63C256.96 14.83 256.72 14.99 256.72 15.13L256.85 15.13L256.72 15.34L256.72 15.46C259.54 14.77 261.79 14.1 263.46 13.46C263.54 13.46 263.58 13.5 263.58 13.59C264.2 13.28 264.64 13.13 264.9 13.13L265.11 13.25C265.11 13.09 266.46 12.66 269.17 11.96C278.44 9.32 283.8 7.85 285.27 7.54L285.27 7.75L271.55 11.63C270.42 11.93 269.78 12.16 269.64 12.3C269.27 12.3 267.34 12.81 263.84 13.84C263.58 13.98 262.07 14.41 259.3 15.13C259.19 15.13 258.8 15.31 258.12 15.67C258.01 15.63 257.9 15.6 257.78 15.59C257.7 15.73 257.65 15.84 257.65 15.92L257.06 15.8L256.93 15.8L256.93 15.92L257.19 15.92L257.19 16.17C255.21 16.53 254.11 16.88 253.88 17.21C253.71 17.13 253.59 17.09 253.5 17.09C253.19 17.37 251.85 17.8 249.48 18.38C249.48 18.47 249.44 18.51 249.35 18.51C249.21 18.43 249.1 18.38 249.01 18.38L248.89 18.59L248.29 18.51C248.04 18.51 247.77 18.66 247.49 18.97C247.32 18.88 247.19 18.84 247.11 18.84L246.98 19.09L246.77 18.97L246.51 18.97C246.51 19.19 246.44 19.3 246.3 19.3L246.05 19.3L245.45 19.17C245.45 19.34 245.26 19.51 244.86 19.68L244.14 19.55C243.1 20.24 238.52 21.33 230.42 22.8C228.44 23.19 225.87 23.58 222.71 23.97L222.71 23.84C218.11 24.57 213.28 24.93 208.22 24.93L208.01 24.93C207.73 25.21 206.94 27.96 205.64 33.18C201.83 45 198.78 53.24 196.49 57.91C196.29 58.6 195.78 59.27 194.96 59.91L194.71 59.91C193.92 59.91 193.52 59.83 193.52 59.66L193.31 59.79L193.19 59.79L191.07 58.99C190.98 58.99 190.86 59.02 190.69 59.08C190.12 59.08 189.57 58.69 189.03 57.91C190.93 53.99 192.31 50.81 193.19 48.36L195.3 42.86C195.3 42.66 195.74 41.47 196.62 39.27C197.72 36.02 198.86 32.09 200.05 27.47C200.19 27.47 200.51 26.58 201.02 24.8C197.21 24.16 194.68 23.39 193.44 22.47C193.04 22.47 191.97 21.69 190.22 20.13L190.22 19.76L190.47 19.76L190.47 19.55C190.08 18.97 189.84 18.23 189.76 17.34C189.67 17.34 189.63 17.3 189.63 17.21L189.76 16.97C189.67 16.83 189.63 16.67 189.63 16.51L189.76 16.51L189.63 16.26L189.63 16.17C189.71 15.01 189.95 14.42 190.35 14.42L195.9 16.97L199.45 17.92L199.71 17.8C200.16 17.94 201.15 18.13 202.67 18.38C203.07 17.38 203.46 16.13 203.86 14.63C204.38 12.53 205.05 10.47 205.85 8.46C205.96 7.85 206.16 7.54 206.44 7.54C206.44 7.46 206.42 7.42 206.36 7.42C206.36 6.67 206.67 6 207.29 5.42L207.16 5.21C207.7 4.82 208.05 4.62 208.22 4.62C208.22 4.37 208.19 4.25 208.14 4.25C208.14 4.08 208.25 3.62 208.48 2.87L209.07 2.87C209.58 1.29 210.17 0.12 210.85 -0.63ZM211.91 1.33L212.16 1.33L212.16 1.71L211.65 1.71L211.65 1.58C211.68 1.41 211.77 1.33 211.91 1.33ZM290.86 1.91L290.86 2.16C290.3 2.3 289.97 2.37 289.89 2.37L289.76 2.16C290.13 2 290.49 1.91 290.86 1.91ZM291.45 2.29L291.79 2.29L291.79 2.5L291.2 2.5C291.23 2.36 291.31 2.29 291.45 2.29L291.45 2.29ZM291.07 2.5C291.07 2.69 290.61 2.84 289.68 2.96L289.55 2.75C290.34 2.58 290.85 2.5 291.07 2.5ZM292.72 2.62L292.98 2.62C292.98 2.82 292.63 2.93 291.92 2.96L291.92 2.75L292.72 2.62ZM285.86 3.54L285.86 3.66L285.99 3.66C286.61 3.58 286.92 3.47 286.92 3.33L286.79 3.33C286.74 3.33 286.43 3.4 285.86 3.54ZM290.48 3.21L290.48 3.46L290.27 3.33C290.27 3.47 290.18 3.54 290.01 3.54L289.89 3.54C289.75 3.54 289.68 3.47 289.68 3.33L290.48 3.21ZM289.68 3.46L289.42 3.79C289.51 3.93 289.55 4.04 289.55 4.12L289.42 4.12L289.08 3.91L288.7 3.91L288.83 4.12L288.83 4.25L288.57 4.25C288.46 4.25 288.35 4.14 288.24 3.91C288.4 3.75 288.88 3.6 289.68 3.46L289.68 3.46ZM287.9 3.79L288.11 4.37L287.77 4.62L287.64 4.62C287.47 4.62 287.39 4.54 287.39 4.37L287.9 4.37L287.9 4.25L287.39 4.25C287.39 4.42 287.32 4.5 287.18 4.5C287.01 4.5 286.92 4.42 286.92 4.25C286.92 4.11 287.25 3.96 287.9 3.79ZM286.12 4.25L286.71 4.25C286.71 4.55 286.78 4.71 286.92 4.71L287.9 4.71L287.9 4.83C287.9 5 287.53 5.12 286.79 5.21L286.79 5.08L286.92 4.83C286.5 4.83 286.23 4.68 286.12 4.37L286.12 4.25ZM285.52 4.62L285.4 4.83L285.4 4.96C285.54 4.87 285.7 4.83 285.86 4.83L285.86 4.71C285.75 4.7 285.63 4.67 285.52 4.62L285.52 4.62ZM210.98 4.71L210.85 5.29C210.96 5.29 211.12 5.14 211.31 4.83L211.06 4.71L210.98 4.71ZM284.21 5.08L284.21 5.29C284.38 5.29 284.47 5.37 284.47 5.54L284.8 5.54C284.97 5.54 285.06 5.46 285.06 5.29C284.89 5.29 284.8 5.22 284.8 5.08L285.14 5.08L285.14 4.83C284.92 5 284.61 5.08 284.21 5.08ZM286.71 5.42L286.92 5.42L286.92 5.67L286.46 5.67C286.48 5.5 286.57 5.42 286.71 5.42ZM210.59 5.67C210.59 5.78 210.52 5.93 210.38 6.12L210.38 6.25C210.5 6.25 210.65 6.1 210.85 5.79L210.59 5.67L210.59 5.67ZM278.87 6.58C278.96 6.58 279.07 6.62 279.21 6.71L279.34 6.71L279.34 6.58C279.2 6.58 279.13 6.51 279.13 6.37C278.96 6.4 278.87 6.47 278.87 6.58ZM272.82 6.37L272.94 6.37L272.94 6.46C272.94 6.62 272.87 6.71 272.73 6.71L272.6 6.46L272.82 6.37ZM275.65 6.83C275.74 6.97 275.78 7.13 275.78 7.29L275.91 7.29C275.91 7.15 276.02 6.96 276.25 6.71L276.04 6.71C275.87 6.79 275.74 6.83 275.65 6.83L275.65 6.83ZM278.41 6.71L278.54 6.96C278.68 6.88 278.79 6.83 278.87 6.83L278.87 6.71L278.41 6.71ZM279.13 7.04L279.21 7.04C279.38 7.04 279.47 6.97 279.47 6.83L279.34 6.83C279.2 6.86 279.13 6.93 279.13 7.04ZM284.34 6.71L284.68 6.71L284.68 6.96L284.34 6.96L284.34 6.71L284.34 6.71ZM211.44 8.21C211.67 8.21 211.87 7.82 212.03 7.04L211.91 7.04C211.68 7.04 211.53 7.43 211.44 8.21ZM273.88 7.54L275.32 7.17L275.32 7.04L275.19 7.04C274.31 7.15 273.88 7.32 273.88 7.54ZM277.81 7.42L278.03 7.42C278.2 7.33 278.32 7.29 278.41 7.29L278.41 7.17L278.03 7.17C277.89 7.19 277.81 7.28 277.81 7.42L277.81 7.42ZM283.49 7.04L283.62 7.29L283.28 7.54L282.43 7.54C282.43 7.4 282.79 7.24 283.49 7.04ZM280.06 7.29L280.53 7.29C280.53 7.46 280.46 7.54 280.31 7.54L280.06 7.54L280.06 7.29L280.06 7.29ZM272.82 7.62L272.82 7.88L272.94 7.88L273.2 7.75C273.34 7.83 273.5 7.88 273.66 7.88L273.79 7.88C273.79 7.76 273.64 7.65 273.32 7.54C273.32 7.6 273.28 7.62 273.2 7.62L273.2 7.54C273.07 7.59 272.95 7.62 272.82 7.63L272.82 7.62ZM281.37 7.54L281.5 7.54C281.64 7.54 281.71 7.61 281.71 7.75L281.71 7.88L281.37 7.88L281.37 7.54ZM265.49 9.75L265.49 9.88L265.83 9.88C266.11 9.71 266.63 9.54 267.4 9.38C267.4 9.49 267.51 9.61 267.73 9.75L267.86 9.75C267.69 9.56 267.61 9.43 267.61 9.38C267.86 9.24 268.1 9.17 268.33 9.17L268.92 9.29L268.79 9.04L272.48 8L272.48 7.75L265.49 9.75ZM280.19 7.88L280.65 7.88C280.65 8.04 280.57 8.12 280.4 8.12L280.19 8.12L280.19 7.88ZM273.79 8.12L273.79 8.33C274.04 8.33 274.24 8.37 274.38 8.46L274.38 8.21L273.79 8.12ZM205.98 8.71L205.98 9.29L206.1 9.29L206.23 8.71L205.98 8.71ZM272.35 8.71C272.38 8.85 272.46 8.92 272.6 8.92L272.73 8.92C272.73 8.78 272.65 8.71 272.48 8.71L272.35 8.71ZM264.77 8.79L264.77 8.92L265.23 8.92L265.23 8.79L264.77 8.79ZM276.97 8.79L277.35 8.79C277.35 8.96 277.26 9.04 277.1 9.04L276.97 9.04L276.97 8.79ZM210 9.29L210 9.5C210.17 9.42 210.3 9.38 210.38 9.38L210.38 9.04L210.26 9.04C210.09 9.07 210 9.15 210 9.29ZM208.6 9.17L208.6 9.5C208.74 9.5 208.81 9.43 208.81 9.29L208.81 9.17L208.6 9.17ZM276.37 9.04L276.37 9.29L275.78 9.38C275.78 9.21 275.98 9.1 276.37 9.04ZM274.98 9.38L275.57 9.38L275.57 9.63C275.29 9.71 275.12 9.75 275.06 9.75L274.98 9.5L274.98 9.38ZM263.46 10.33L263.46 10.46L263.71 10.46C263.85 10.46 264.09 10.38 264.43 10.21C264.57 10.29 264.68 10.33 264.77 10.33L264.9 10.08L264.64 10.08C264.44 10.08 264.05 10.17 263.46 10.34L263.46 10.33ZM259.69 10.21L259.69 10.33L260.15 10.33L260.15 10.21L259.69 10.21ZM262.06 10.92L262.4 10.92L262.74 10.67C262.91 10.75 263.03 10.79 263.12 10.79L263.24 10.54C263.07 10.54 262.99 10.52 262.99 10.46C262.37 10.63 262.06 10.78 262.06 10.92ZM266.89 11.04L267.01 11.04C267.18 11.04 267.27 10.96 267.27 10.79L267.14 10.79C266.97 10.82 266.89 10.9 266.89 11.04ZM268.45 11.04C268.45 10.96 268.41 10.92 268.33 10.92C268.33 11.06 267.49 11.32 265.83 11.71L265.83 11.96L266.21 11.96C266.41 11.82 267.35 11.52 269.05 11.04L269.05 10.79L268.79 10.79L268.45 11.04ZM262.86 12.09L263.24 12.09L263.24 11.83L263.12 11.83C262.95 11.86 262.86 11.95 262.86 12.09ZM264.18 12.09L264.18 12.29L265.36 12.21L265.36 12.09C265.28 12.09 265.16 12.04 265.02 11.96C264.75 12.04 264.46 12.08 264.18 12.09ZM208.81 12.21L208.81 12.54L209.2 12.54L209.2 12.21L208.81 12.21ZM261.08 13L261.08 13.13L261.34 13.13C261.62 13.13 262.48 12.89 263.92 12.42L263.92 12.29L263.58 12.29C263.13 12.55 262.3 12.78 261.08 13L261.08 13ZM260.87 12.67L261.08 12.67C261.25 12.59 261.38 12.54 261.47 12.54L261.47 12.42L261.08 12.42C260.94 12.45 260.87 12.53 260.87 12.67ZM258.12 13.38L258.12 13.59L258.97 13.46L258.84 13.25L258.12 13.38ZM257.53 13.46L257.53 13.59L258.03 13.59L257.91 13.38C257.78 13.42 257.66 13.45 257.53 13.46ZM260.03 13.59L260.28 13.59C260.42 13.59 260.49 13.52 260.49 13.38L260.28 13.38C260.11 13.38 260.03 13.45 260.03 13.59ZM258.63 13.71L258.63 13.96C258.88 13.96 259.08 13.99 259.22 14.05C259.22 13.82 259.45 13.71 259.9 13.71L259.9 13.46L259.81 13.46C259.25 13.63 258.85 13.71 258.63 13.71ZM255.87 13.96L255.87 14.05L256.34 14.05C256.51 14.05 256.59 13.98 256.59 13.84C256.51 13.84 256.47 13.8 256.47 13.71C256.21 13.88 256.01 13.96 255.87 13.96ZM257.78 14.05L257.78 14.17C257.94 14.17 258.1 14.13 258.25 14.05L258.5 14.17L258.63 14.17L258.63 14.05C258.37 14.05 258.25 13.93 258.25 13.71C257.94 13.82 257.78 13.93 257.78 14.05ZM254.22 15L254.22 15.13L254.35 15.13L255.87 14.75C256.04 14.84 256.17 14.88 256.26 14.88L256.26 15C256.26 15.14 256.17 15.21 256 15.21C255.83 15.21 255.68 15.18 255.53 15.13L254.82 15.46L254.56 15.34C254.56 15.45 254.36 15.6 253.97 15.8L253.76 15.8L253.5 15.67C253.5 15.84 253.3 15.92 252.91 15.92L253.04 16.17L252.78 16.26C252.78 16.12 252.71 16.05 252.57 16.05C252.4 16.13 252.27 16.17 252.19 16.17C252.36 16.37 252.44 16.52 252.44 16.63L252.7 16.63L252.57 16.38L252.57 16.26L253.16 16.38C253.3 16.38 253.37 16.31 253.37 16.17L253.63 16.26L253.88 16.26L253.76 16.05L253.97 15.92C254 16.09 254.08 16.17 254.22 16.17L254.48 16.17L254.35 15.92L254.56 15.8L254.56 16.05C255.58 15.85 256.26 15.57 256.59 15.21L256.47 15L256.85 14.42L256.26 14.42L256.26 14.75L256.13 14.75L256.13 14.42L254.22 15ZM252.19 15.67L252.7 15.67C252.84 15.67 252.91 15.6 252.91 15.46L252.44 15.46C252.27 15.49 252.19 15.56 252.19 15.67ZM249.14 16.38L249.14 16.51L249.61 16.51L249.61 16.26L249.48 16.26C249.34 16.34 249.22 16.38 249.14 16.38ZM251.85 16.38L251.85 16.51C251.88 16.67 251.96 16.76 252.1 16.76L252.19 16.76L252.19 16.38L251.85 16.38ZM250.92 16.51C250.92 16.67 250.88 16.83 250.79 16.96L251.13 16.96L251.13 16.76L251.38 16.84L251.72 16.84L251.72 16.76C251.72 16.59 251.65 16.5 251.51 16.5L250.92 16.5L250.92 16.51ZM250.33 16.76C250.33 16.89 250.24 16.96 250.07 16.96C250.1 17.13 250.18 17.21 250.33 17.21L250.54 17.21L250.54 17.09L250.41 16.84C250.49 16.84 250.54 16.81 250.54 16.76L250.33 16.76ZM246.3 17.8L246.39 18.01C246.24 18.09 246.13 18.13 246.05 18.13C246.08 18.3 246.16 18.38 246.3 18.38C247.15 18.05 247.7 17.77 247.95 17.55C248.15 17.55 248.38 17.63 248.63 17.8L248.76 17.55C248.67 17.55 248.63 17.51 248.63 17.42L249.22 17.55L249.94 17.34C249.94 17.17 249.87 17.09 249.73 17.09L249.61 17.09L249.22 17.34C249.22 17.17 249.2 17.09 249.14 17.09C248.97 17.17 248.84 17.21 248.76 17.21L248.76 17.09C247.52 17.56 246.7 17.8 246.3 17.8ZM244.73 18.38C244.76 18.52 244.85 18.59 244.99 18.59C245.55 18.59 245.86 18.48 245.92 18.26L245.33 18.13L245.33 18.38L245.2 18.38L245.2 18.13L244.99 18.13C244.82 18.16 244.73 18.24 244.73 18.38ZM243.8 18.51L243.8 18.59L244.52 18.72C244.52 18.6 244.4 18.49 244.14 18.38C244 18.47 243.89 18.51 243.8 18.51ZM214.91 28.18L215.21 28.18C215.21 28.57 215.27 28.76 215.38 28.76L215.21 29.47L215.21 30.89C215.21 31 215.17 31.06 215.08 31.06L215.21 31.35L215.08 32.06L215.51 32.06C215.62 31.14 215.82 30.32 216.1 29.6L216.82 29.6C216.85 29.43 216.95 29.35 217.12 29.35L217.71 29.77L217.84 29.18L218.13 29.18L218.13 30.18C218.3 30.18 218.5 29.71 218.73 28.76L219.15 28.76C219.15 29.15 219.25 29.35 219.45 29.35L219.45 30.47C219.45 30.56 219.39 30.6 219.28 30.6C219.39 30.77 219.45 31.06 219.45 31.47L219.57 31.47L219.57 30.77L219.87 30.77L219.87 31.35C219.67 31.85 219.48 33.7 219.28 36.9C219.08 37.54 218.6 40.77 217.84 46.61C217.75 46.61 217.71 46.76 217.71 47.07L217.84 47.32C217.64 47.85 217 51.67 215.93 58.79C215.82 58.79 215.44 59.16 214.79 59.91C211.88 59.72 210.43 59.42 210.43 59.04L209.41 59.2C207.77 58.98 206.95 58.65 206.95 58.2L206.95 57.49C207.43 57.49 208.55 52.53 210.3 42.61C210.44 41.22 210.64 40.27 210.89 39.77L210.72 39.48C210.92 38.37 211.46 36.23 212.33 33.06C212.33 32.59 212.37 32.35 212.46 32.35L212.33 32.06C212.58 31.39 212.78 31.06 212.92 31.06C212.92 31.14 212.97 31.18 213.05 31.18C213.28 30.04 213.56 29.18 213.9 28.6L214.2 28.76L214.36 28.76C214.36 28.57 214.41 28.47 214.49 28.47L214.91 28.47L214.91 28.18ZM253.59 19.93L253.71 19.93L253.71 20.3L253.59 20.59C253.76 20.62 253.84 20.72 253.84 20.88L253.08 22.22L253.08 22.39L253.21 22.39C253.21 22.11 253.46 21.79 253.97 21.43L253.97 21.55C253.94 21.72 253.52 22.4 252.7 23.59L252.7 23.76C253.46 23.29 253.84 22.91 253.84 22.64L253.97 22.64L253.97 22.8C253.97 23.28 253.63 23.78 252.95 24.3L252.7 24.14L252.53 24.43L252.53 24.55L252.95 24.55L252.82 24.85C252.94 24.85 253.06 24.98 253.21 25.26L253.21 25.39L252.53 26.47L252.53 26.64L252.82 26.64L252.82 26.76C252.82 26.9 252.68 27.04 252.4 27.18C252.4 26.99 252.32 26.89 252.15 26.89L251.89 27.72L252.02 27.72L252.53 27.31L252.7 27.31C252.7 27.44 252.51 27.63 252.15 27.85L252.27 28.14C252.27 28.28 251.93 28.6 251.26 29.1C251.68 29.13 251.89 29.27 251.89 29.52C251.27 30.65 250.71 31.34 250.2 31.56C249.86 32 249.61 32.23 249.44 32.23L249.44 32.52L249.69 32.52L249.69 32.23C249.86 32.23 249.94 32.36 249.94 32.64L250.07 32.64L251.64 30.6L251.77 30.6C251.06 32.02 249.68 34.07 247.61 36.77L247.49 36.77L247.49 36.64L248.04 35.69L247.91 35.69L246.34 37.02C246.29 37.3 246.08 37.67 245.71 38.15L245.96 38.27L246.09 38.27L247.23 37.02L247.36 37.31C245.89 39.62 245.03 41.26 244.78 42.23C244.69 42.23 244.14 43.11 243.12 44.86C241.54 46.39 240.12 48.21 238.85 50.32C238.17 51.49 237.48 52.91 236.77 54.57C235.3 57.55 234.48 59.15 234.31 59.37L233.42 60.2C233.31 60.2 233.26 60.16 233.26 60.08L233 60.2C232.55 59.87 231.6 59.55 230.16 59.24C230.16 59.13 229.82 58.95 229.15 58.7L228.89 58.83C227.42 58.47 226.69 57.69 226.69 56.49C226.15 54.07 225.46 49.92 224.61 44.03C224.11 42.16 223.41 38.97 222.54 34.44L222.41 34.44C222.41 33.35 222.89 32.81 223.85 32.81C225.32 32.81 227 33.57 228.89 35.1C229.2 35.1 229.54 35.38 229.91 35.94C229.91 36.02 229.87 36.06 229.78 36.06C230.04 36.78 230.86 40.36 232.24 46.78L232.11 46.78C232.28 47.33 232.37 47.69 232.37 47.86L232.49 47.86L241.18 34.98C241.18 34.92 242.55 32.92 245.29 28.97C245.29 28.81 246.41 27.25 248.67 24.3C248.67 23.94 249.53 22.8 251.26 20.88C251.51 20.88 251.93 20.79 252.53 20.59L252.82 20.72C252.82 20.63 253.08 20.37 253.59 19.93ZM251.89 24.55L251.89 24.85L252.15 24.85C252.15 24.62 252.23 24.39 252.4 24.14L252.4 24.01C252.29 24.01 252.12 24.19 251.89 24.55ZM251 30.18L250.88 30.47L250.88 30.6L251 30.6C251 30.49 251.05 30.35 251.13 30.18L251 30.18ZM265.91 28.51C269.27 28.51 272.21 29.83 274.72 32.48C275.23 33.67 275.63 35.1 275.91 36.77C275.91 36.85 275.87 36.9 275.78 36.9L275.91 37.73L275.91 38.73C275.91 40.2 274.68 42.04 272.22 44.23C267.54 47.04 264.4 48.45 262.82 48.45C262.62 48.36 262.48 48.32 262.4 48.32C262.4 48.49 262.3 48.57 262.1 48.57C261.99 48.57 261.93 48.53 261.93 48.45L261.21 48.57L260.74 48.57C260.6 48.57 260.46 48.45 260.32 48.19L260.45 47.94C260.05 47.47 259.71 47.24 259.43 47.24C257.48 45.51 256.51 44.15 256.51 43.15L256.81 43.02L259.01 43.02C261.61 42.52 264.78 41.01 268.54 38.48C270.2 36.84 271.04 35.8 271.04 35.35L269 34.98L267.23 34.98C264.6 35.2 261.17 36.77 256.93 39.69C254.76 41.58 253.39 43.82 252.82 46.4C253.76 48.74 257.62 51.06 264.43 53.36C266.49 54 269.15 54.68 272.39 55.41L272.52 55.66C272.32 55.69 272.22 55.75 272.22 55.87L272.52 55.99C272.72 55.99 272.82 55.88 272.82 55.66L273.54 55.66L273.54 55.87L273.11 55.87L273.11 56.12L273.41 56.12C274.48 56.12 275.02 56.33 275.02 56.74C275.02 56.96 275.22 57.08 275.61 57.08L275.61 57.45C275.61 57.62 275.51 57.7 275.32 57.7L274.6 57.7C273.83 57.7 272.6 57.53 270.91 57.2L270.91 57.45L271.33 57.45L271.33 57.7L270.91 57.7C270.66 57.53 270.46 57.45 270.32 57.45L270.32 57.2L270.61 57.2L270.61 57.07L270.19 57.07L269.73 57.33L269.6 57.33C268.86 57.33 268.47 57.2 268.41 56.95L269.13 56.95C269.13 56.81 269.03 56.74 268.84 56.74L268.41 56.74C268.41 56.88 268.21 56.95 267.82 56.95L267.82 57.08C268.1 57.08 268.64 57.28 269.43 57.7L269.89 57.45L270.02 57.45L270.02 57.58L269.89 57.83L270.02 57.83C270.22 57.74 270.37 57.7 270.49 57.7L273.54 58.66C273.93 58.66 274.13 58.73 274.13 58.87L273.83 58.87L272.1 58.79L271.93 58.79L271.93 58.87C272.01 58.87 272.31 58.91 272.82 58.99L272.82 59.12C272.82 59.23 272.58 59.4 272.1 59.62C271.84 59.45 271.65 59.37 271.5 59.37L271.21 59.49C270.44 59.16 269.95 58.99 269.73 58.99L269.6 58.99L270.91 59.74C270.51 59.74 270.32 59.94 270.32 60.33L269.43 60.33C268.64 60.33 268 60.16 267.52 59.83C264.19 59.02 260.66 57.74 256.93 55.99C254.42 54.27 252.7 52.75 251.77 51.45C250.61 50.34 249.68 47.65 248.97 43.4L248.84 41.94C249.04 40.08 249.38 38.72 249.86 37.85C250.51 36.66 251.6 35.51 253.12 34.39C253.12 33.98 254 33.34 255.75 32.48C257.16 31.67 258.19 30.95 258.84 30.31C261.35 29.11 263.71 28.51 265.91 28.51ZM274.72 39.9C274.72 40.04 274.38 40.56 273.71 41.48L273.83 41.48C274.31 41.48 274.71 40.95 275.02 39.9L274.72 39.9ZM273.54 41.61C273.31 42.3 271.8 43.5 269 45.19C266.07 46.64 264.5 47.36 264.3 47.36L264.3 47.49L264.73 47.49C269.07 46.18 272.17 44.26 274 41.73L273.71 41.61L273.54 41.61ZM267.23 56.95L267.69 56.95L267.69 56.74L267.52 56.74C267.32 56.74 267.23 56.81 267.23 56.95ZM272.69 57.83L273.11 57.83L273.11 58.03L272.69 58.03L272.69 57.83ZM267.4 58.53L267.4 58.79C267.48 58.79 267.62 58.81 267.82 58.87L267.95 58.66C267.75 58.66 267.56 58.62 267.4 58.53ZM268.71 59.62C268.93 59.62 269.13 59.66 269.3 59.74L269.43 59.49L269.13 59.37L269 59.37C268.81 59.4 268.71 59.48 268.71 59.62Z" fill="#FFFFFF" fill-opacity="1.000000" fill-rule="nonzero"/>
</svg>
