<svg width="138.000000" height="137.000000" viewBox="0 0 138 137" fill="none" xmlns="http://www.w3.org/2000/svg" xmlns:xlink="http://www.w3.org/1999/xlink">
	<desc>
			Created with Pixso.
	</desc>
	<defs/>
	<path id="Vector" d="M84.94 68.48L96.09 57.44C106.43 61.45 118.63 59.35 126.98 51.08L131.05 47.04C140.06 38.12 140.06 23.67 131.05 14.75L126.98 18.79L110.68 34.93C108.43 37.17 104.78 37.17 102.53 34.93C100.27 32.7 100.27 29.09 102.53 26.86L118.83 10.72L122.9 6.68C113.9 -2.23 99.3 -2.23 90.3 6.68L86.22 10.72C77.87 18.99 75.75 31.06 79.79 41.3L64.57 56.38L10.47 2.82L-0.53 0L2.32 10.89L56.42 64.45L4.71 115.65C0.21 120.11 0.21 127.33 4.71 131.79C9.21 136.25 16.51 136.25 21.01 131.79L68.64 84.63L118.13 133.63C122.64 138.09 129.93 138.09 134.43 133.63C138.94 129.17 138.94 121.95 134.43 117.49L84.94 68.48ZM90.3 14.75L94.38 10.72C99.69 5.45 107.58 4.4 114.01 7.42L98.45 22.82C93.95 27.28 93.95 34.51 98.45 38.97C102.95 43.43 110.25 43.43 114.75 38.97L130.31 23.57C133.36 29.93 132.3 37.74 126.98 43.01L122.9 47.04C113.9 55.96 99.3 55.96 90.3 47.04C81.29 38.12 81.29 23.67 90.3 14.75ZM82.56 46.64C83.61 48.2 84.82 49.69 86.22 51.08C87.62 52.46 89.13 53.66 90.71 54.71L76.79 68.48L68.64 60.41L82.56 46.64ZM16.93 127.75C14.68 129.98 11.04 129.98 8.78 127.75C6.53 125.52 6.53 121.91 8.78 119.68L16.93 111.61L25.09 119.68L16.93 127.75ZM21.01 107.58L60.49 68.48L68.64 76.56L29.16 115.65L21.01 107.58ZM73.3 81.16L81.45 73.09L118.13 109.42L109.98 117.49L73.3 81.16ZM130.36 129.59C128.11 131.82 124.46 131.82 122.21 129.59L114.06 121.52L122.21 113.45L130.36 121.52C132.61 123.75 132.61 127.36 130.36 129.59Z" fill="#130E27" fill-opacity="1.000000" fill-rule="evenodd"/>
</svg>
